<?xml version="1.0" encoding="utf-8"?>
<!-- Generator: Adobe Illustrator 19.2.1, SVG Export Plug-In . SVG Version: 6.00 Build 0)  -->
<svg version="1.1" id="Layer_1" xmlns="http://www.w3.org/2000/svg" xmlns:xlink="http://www.w3.org/1999/xlink" x="0px" y="0px"
	 width="285.9100037px" height="64.2099991px" viewBox="0 0 285.9100037 64.2099991"
	 enable-background="new 0 0 285.9100037 64.2099991" xml:space="preserve">
<g id="XMLID_631_">
	<g id="XMLID_633_">
		<path id="XMLID_634_" d="M51.4752731,46.3711166c-0.0791016,0.2245979-1.3271027,4.5370979-4.3778992,8.9902
			c-2.6338005,3.8495979-5.3701019,7.6913986-9.6777,7.7694969c-4.232502,0.0781021-5.5938015-2.5116997-10.4307022-2.5116997
			c-4.8417988,0-6.3563995,2.4336014-10.3584003,2.5898018c-4.1591988,0.1562996-7.3270988-4.1640015-9.982399-7.9980011
			C1.2174723,47.359314-2.9260278,33.027317,2.6452723,23.3593159c2.7607002-4.8066006,7.7098999-7.8476,13.0770998-7.9256992
			c4.0858994-0.0782003,7.9355011,2.7440987,10.4346008,2.7440987c2.4969997,0,7.1766987-3.3944988,12.0995998-2.8983994
			c2.0596008,0.0878,7.8446999,0.8320007,11.5625,6.2714005c-0.2969017,0.1875-6.9053001,4.0331993-6.8330002,12.0312843
			C43.0719719,43.1504173,51.3795738,46.3300018,51.4752731,46.3711166 M35.0299721,10.0918159
			C37.2438736,7.4179163,38.7282715,3.6992166,38.3200722,0c-3.1796989,0.1171166-7.0331993,2.1171165-9.3125,4.789
			c-2.0450001,2.3653164-3.8388996,6.1504159-3.3526001,9.7735157
			C29.1989727,14.8379164,32.8248711,12.759716,35.0299721,10.0918159z"/>
	</g>
	<g id="XMLID_78_">
		<path id="XMLID_79_" d="M83.5508194,44.6707611h-9.3994141l-2.2558594,6.6650391h-3.9819336l8.9038086-24.6606464h4.1357422
			l8.9038086,24.6606464h-4.050293L83.5508194,44.6707611z M75.1255264,41.5945892h7.4511719l-3.6743164-10.817873h-0.1025391
			L75.1255264,41.5945892z"/>
		<path id="XMLID_82_" d="M109.0659561,42.3465424c0,5.5883789-2.9907227,9.1772461-7.5024414,9.1772461
			c-2.5634766,0-4.597168-1.1450195-5.6567383-3.1445312h-0.0854492v8.9038086H92.129921V33.3572845h3.5717773v2.9907227h0.0683594
			c1.0253906-1.9311523,3.2128906-3.1787109,5.7250977-3.1787109
			C106.0581436,33.1692963,109.0659561,36.7752533,109.0659561,42.3465424z M105.2720108,42.3465424
			c0-3.6401367-1.8798828-6.0327148-4.7509766-6.0327148c-2.8198242,0-4.7167969,2.4438477-4.7167969,6.0327148
			c0,3.6230469,1.8969727,6.0498047,4.7167969,6.0498047C103.392128,48.396347,105.2720108,46.0208588,105.2720108,42.3465424z"/>
		<path id="XMLID_85_" d="M128.9087219,42.3465424c0,5.5883789-2.990715,9.1772461-7.5024338,9.1772461
			c-2.5634766,0-4.597168-1.1450195-5.6567383-3.1445312h-0.0854492v8.9038086h-3.6914062V33.3572845h3.5717773v2.9907227h0.0683594
			c1.0253906-1.9311523,3.2128906-3.1787109,5.7250977-3.1787109
			C125.9009171,33.1692963,128.9087219,36.7752533,128.9087219,42.3465424z M125.1147842,42.3465424
			c0-3.6401367-1.8798828-6.0327148-4.7509766-6.0327148c-2.8198242,0-4.7167969,2.4438477-4.7167969,6.0327148
			c0,3.6230469,1.8969727,6.0498047,4.7167969,6.0498047C123.2349014,48.396347,125.1147842,46.0208588,125.1147842,42.3465424z"/>
		<path id="XMLID_88_" d="M132.1972961,26.6751537h3.6914062v24.6606464h-3.6914062V26.6751537z"/>
		<path id="XMLID_90_" d="M155.4131165,46.0550385c-0.4956055,3.2641602-3.6743164,5.5029297-7.7416992,5.5029297
			c-5.2294922,0-8.4765625-3.503418-8.4765625-9.1259766c0-5.6396484,3.2641602-9.296875,8.3227539-9.296875
			c4.9731445,0,8.1005859,3.4179688,8.1005859,8.8696289v1.2646484h-12.6977539v0.222168
			c0,3.0761719,1.9311523,5.0927734,4.8364258,5.0927734c2.0507812,0,3.6572266-0.9741211,4.152832-2.5292969H155.4131165z
			 M142.9375305,40.6888275h8.9892578c-0.0854492-2.7514648-1.8457031-4.5629883-4.4091797-4.5629883
			C144.9712219,36.1258392,143.1255188,37.9715424,142.9375305,40.6888275z"/>
		<path id="XMLID_99_" d="M171.3218079,51.3358002V29.9734936h-7.5537109v-3.2983398h18.918457v3.2983398h-7.5366211v21.3623066
			H171.3218079z"/>
		<path id="XMLID_101_" d="M197.0688782,46.0550385c-0.4951172,3.2641602-3.6738281,5.5029297-7.7416992,5.5029297
			c-5.2294922,0-8.4765625-3.503418-8.4765625-9.1259766c0-5.6396484,3.2641602-9.296875,8.3227539-9.296875
			c4.9736328,0,8.1005859,3.4179688,8.1005859,8.8696289v1.2646484h-12.6977539v0.222168
			c0,3.0761719,1.9311523,5.0927734,4.8364258,5.0927734c2.0507812,0,3.6572266-0.9741211,4.1533203-2.5292969H197.0688782z
			 M184.5932922,40.6888275h8.9892578c-0.0849609-2.7514648-1.8457031-4.5629883-4.4091797-4.5629883
			C186.6269836,36.1258392,184.7812805,37.9715424,184.5932922,40.6888275z"/>
		<path id="XMLID_104_" d="M199.8305969,46.2259369c0-3.1445312,2.4091797-5.0415039,6.6816406-5.2978516l4.921875-0.2734375
			v-1.3671875c0-1.9995117-1.3154297-3.1274414-3.5546875-3.1274414c-2.0507812,0-3.4863281,0.9741211-3.7763672,2.5292969
			h-3.4521484c0.1025391-3.2470703,3.1269531-5.5541992,7.3310547-5.5541992c4.2900391,0,7.1269531,2.3413086,7.1269531,5.8789062
			v12.3217773h-3.5380859v-2.956543h-0.0849609c-1.0429688,1.9995117-3.3154297,3.2641602-5.6738281,3.2641602
			C202.2915344,51.6434174,199.8305969,49.4559174,199.8305969,46.2259369z M211.4341125,44.6024017v-1.3842773
			l-4.4257812,0.2734375c-2.2050781,0.1367188-3.4521484,1.09375-3.4521484,2.6318359
			c0,1.5722656,1.2988281,2.5976562,3.28125,2.5976562C209.417511,48.7210541,211.4341125,46.9437103,211.4341125,44.6024017z"/>
		<path id="XMLID_107_" d="M231.0122375,39.543808c-0.3251953-1.8969727-1.8115234-3.3154297-4.2382812-3.3154297
			c-2.8369141,0-4.7167969,2.3754883-4.7167969,6.1181641c0,3.828125,1.8964844,6.1352539,4.7509766,6.1352539
			c2.2900391,0,3.7939453-1.1450195,4.2041016-3.2299805h3.5546875c-0.4101562,3.7768555-3.4355469,6.3061523-7.7929688,6.3061523
			c-5.1269531,0-8.4765625-3.503418-8.4765625-9.2114258c0-5.5883789,3.3496094-9.2114258,8.4423828-9.2114258
			c4.6142578,0,7.4853516,2.9052734,7.7929688,6.4086914H231.0122375z"/>
		<path id="XMLID_109_" d="M237.5630188,26.6751537h3.6572266v9.7412128h0.0859375
			c1.0761719-2.1533203,2.9394531-3.2641602,5.6904297-3.2641602c3.9482422,0,6.3066406,2.6318359,6.3066406,6.6992188v11.484375
			h-3.7089844V40.5862885c0-2.6489258-1.3330078-4.2553711-3.9306641-4.2553711
			c-2.734375,0-4.4091797,1.8798828-4.4091797,4.7338867v10.2709961h-3.6914062V26.6751537z"/>
		<path id="XMLID_111_" d="M272.3774719,46.0550385c-0.4951172,3.2641602-3.6738281,5.5029297-7.7412109,5.5029297
			c-5.2294922,0-8.4765625-3.503418-8.4765625-9.1259766c0-5.6396484,3.2636719-9.296875,8.3222656-9.296875
			c4.9736328,0,8.1005859,3.4179688,8.1005859,8.8696289v1.2646484h-12.6972656v0.222168
			c0,3.0761719,1.9306641,5.0927734,4.8359375,5.0927734c2.0507812,0,3.6572266-0.9741211,4.1533203-2.5292969H272.3774719z
			 M259.901886,40.6888275h8.9892578c-0.0849609-2.7514648-1.8457031-4.5629883-4.4091797-4.5629883
			C261.9360657,36.1258392,260.0903625,37.9715424,259.901886,40.6888275z"/>
		<path id="XMLID_114_" d="M275.7163391,33.3572845h3.5205078v3.059082h0.0859375
			c0.5634766-2.0336914,2.2041016-3.2470703,4.3232422-3.2470703c0.5302734,0,0.9746094,0.0683594,1.2646484,0.1367188v3.4521484
			c-0.2900391-0.1196289-0.9394531-0.222168-1.6572266-0.222168c-2.3759766,0-3.8457031,1.6064453-3.8457031,4.1357422v10.6640625
			h-3.6914062V33.3572845z"/>
	</g>
</g>
<g>
</g>
<g>
</g>
<g>
</g>
<g>
</g>
<g>
</g>
<g>
</g>
</svg>
