<?xml version="1.0" encoding="UTF-8"?>
<svg width="512px" height="512px" viewBox="0 0 512 512" version="1.1" xmlns="http://www.w3.org/2000/svg" xmlns:xlink="http://www.w3.org/1999/xlink">
    <!-- Generator: Sketch 41.2 (35397) - http://www.bohemiancoding.com/sketch -->
    <title>icon_512x512_rounded</title>
    <desc>Created with Sketch.</desc>
    <defs>
        <rect id="path-1" x="0" y="0" width="512" height="512" rx="100"></rect>
        <linearGradient x1="51.2654603%" y1="50%" x2="51.2654603%" y2="0%" id="linearGradient-3">
            <stop stop-color="#E6DBBD" stop-opacity="0" offset="0%"></stop>
            <stop stop-color="#C9BFA0" offset="100%"></stop>
        </linearGradient>
        <linearGradient x1="50%" y1="50%" x2="50%" y2="100%" id="linearGradient-4">
            <stop stop-color="#E7DCBE" stop-opacity="0" offset="0%"></stop>
            <stop stop-color="#C9BEA0" offset="98.2720823%"></stop>
        </linearGradient>
        <rect id="path-5" x="0" y="0" width="512" height="512"></rect>
    </defs>
    <g id="Page-1" stroke="none" stroke-width="1" fill="none" fill-rule="evenodd">
        <g id="icon_512x512_rounded">
            <mask id="mask-2" fill="white">
                <use xlink:href="#path-1"></use>
            </mask>
            <g id="Mask"></g>
            <g id="icon_base-+-T-+-e" mask="url(#mask-2)">
                <g id="icon_base">
                    <g id="bg">
                        <use fill="#FFFFFF" xlink:href="#path-5"></use>
                        <use fill="url(#linearGradient-3)" xlink:href="#path-5"></use>
                        <use fill="url(#linearGradient-4)" xlink:href="#path-5"></use>
                    </g>
                    <polygon id="Path" fill-opacity="0.617527174" fill="#FBF8EF" points="0 511.003891 254.764279 512 511.708246 255.468634 512 0.996108949 257.636178 0 0.291753556 256.931822"></polygon>
                </g>
                <g id="T-+-e" transform="translate(145.000000, 168.000000)" fill="#600D0D">
                    <path d="M82.0804899,157.191182 C85.8970508,157.523056 90.0039405,157.854926 94.4012824,158.186801 C98.7986243,158.518676 102.656612,159.016481 105.97536,159.680231 C106.473173,161.173667 106.805042,163.455273 106.97098,166.525115 C107.136917,169.594958 107.05395,171.876563 106.722075,173.37 L35.037464,173.37 C35.2034014,171.544688 35.6182388,169.34605 36.2819885,166.77402 C36.9457382,164.20199 37.6094779,162.003352 38.2732277,160.17804 C40.7622891,159.514291 44.1224716,158.892035 48.3538761,158.311254 C52.5852805,157.730473 56.1943655,157.274152 59.1812392,156.942277 L59.1812392,15.8131988 L18.8586455,15.8131988 C18.6927081,17.3066357 18.4852894,19.0074688 18.2363833,20.9157493 C17.9874771,22.8240297 17.697091,24.7737653 17.3652161,26.7650144 C17.0333413,28.7562636 16.7014714,30.6645154 16.3695965,32.4898271 C16.0377217,34.3151388 15.7888193,35.8085533 15.6228818,36.9701153 C13.7975701,37.4679276 11.4329972,37.8412812 8.52909222,38.0901873 C5.62518721,38.3390935 3.0117119,38.4635447 0.688587896,38.4635447 L0.688587896,0.63 L140.573141,0.63 L140.573141,39.4591643 C138.08408,39.4591643 135.429121,39.2932293 132.608184,38.9613545 C129.787248,38.6294796 127.381192,38.2146423 125.389942,37.71683 C124.726193,34.8958937 124.103937,31.3282925 123.523156,27.0139193 C122.942375,22.6995462 122.486054,18.96601 122.154179,15.8131988 L82.0804899,15.8131988 L82.0804899,157.191182 Z" id="T"></path>
                    <path d="M144.589286,118.959286 C144.898811,131.495063 148.535679,141.322345 155.5,148.441429 C162.464321,155.560512 171.440421,159.12 182.428571,159.12 C184.904774,159.12 187.57439,158.92655 190.4375,158.539643 C193.30061,158.152736 196.202366,157.649765 199.142857,157.030714 C202.083348,156.411664 204.907725,155.715242 207.616071,154.941429 C210.324418,154.167615 212.761894,153.393813 214.928571,152.62 C215.238097,154.322389 215.083336,156.527725 214.464286,159.236071 C213.845235,161.944418 212.994053,164.149753 211.910714,165.852143 C207.732122,168.173583 202.39289,170.340228 195.892857,172.352143 C189.392825,174.364058 182.505989,175.37 175.232143,175.37 C166.874958,175.37 159.485151,173.899777 153.0625,170.959286 C146.639849,168.018795 141.184546,163.995026 136.696429,158.887857 C132.208311,153.780689 128.803583,147.783725 126.482143,140.896786 C124.160703,134.009847 123,126.542659 123,118.495 C123,109.983053 124.276773,102.012894 126.830357,94.5842857 C129.383941,87.1556771 132.98212,80.6557421 137.625,75.0842857 C142.26788,69.5128293 147.877943,65.1408492 154.455357,61.9682143 C161.032771,58.7955794 168.422578,57.2092857 176.625,57.2092857 C183.589321,57.2092857 189.586284,58.4086785 194.616071,60.8075 C199.645858,63.2063215 203.747008,66.5723593 206.919643,70.9057143 C210.092278,75.2390693 212.452373,80.4622313 214,86.5753571 C215.547627,92.6884829 216.321429,99.3818684 216.321429,106.655714 C216.321429,110.679544 216.089288,114.780693 215.625,118.959286 L144.589286,118.959286 Z M195.660714,105.495 C196.125002,101.47117 196.125002,97.3700209 195.660714,93.1914286 C195.196426,89.0128363 194.113104,85.1825174 192.410714,81.7003571 C190.708325,78.2181969 188.270849,75.3938204 185.098214,73.2271429 C181.925579,71.0604654 177.9405,69.9771429 173.142857,69.9771429 C164.785672,69.9771429 158.130977,73.2271104 153.178571,79.7271429 C148.226166,86.2271754 145.363099,94.8163752 144.589286,105.495 L195.660714,105.495 Z" id="e"></path>
                </g>
            </g>
        </g>
    </g>
</svg>