<svg xmlns="http://www.w3.org/2000/svg" xmlns:xlink="http://www.w3.org/1999/xlink" viewBox="0 0 80 80"><path fill="#b0c1d4" d="M72.5 28.5H79.5V37.5H72.5z"/><path fill="#66798f" d="M79,29v8h-6v-8H79 M80,28h-8v10h8V28L80,28z"/><path fill="#b0c1d4" d="M0.5 28.5H7.5V37.5H0.5z"/><path fill="#66798f" d="M7,29v8H1v-8H7 M8,28H0v10h8V28L8,28z"/><path fill="#fff" d="M16.5 4.5H63.5V39.5H16.5z"/><path fill="#788b9c" d="M63,5v34H17V5H63 M64,4H16v36h48V4L64,4z"/><path fill="#ffeea3" d="M16,75.5c-5.238,0-9.5-4.262-9.5-9.5V24.5H30c1.93,0,3.5,1.57,3.5,3.5v3.5h-8V32 c0,3.584,2.916,6.5,6.5,6.5h16c3.584,0,6.5-2.916,6.5-6.5v-0.5h-8V28c0-1.93,1.57-3.5,3.5-3.5h23.5V66c0,5.238-4.262,9.5-9.5,9.5 H16z"/><path fill="#ba9b48" d="M73,25v41c0,4.963-4.037,9-9,9H16c-4.963,0-9-4.037-9-9V25h23c1.654,0,3,1.346,3,3v3h-7h-1v1 c0,3.86,3.14,7,7,7h16c3.86,0,7-3.14,7-7v-1h-1h-7v-3c0-1.654,1.346-3,3-3H73 M74,24H50c-2.209,0-4,1.791-4,4v4h8 c0,3.314-2.686,6-6,6H32c-3.314,0-6-2.686-6-6h8v-4c0-2.209-1.791-4-4-4H6v42c0,5.523,4.477,10,10,10h48c5.523,0,10-4.477,10-10 V24L74,24z"/><path fill="#788b9c" d="M26 11H54V12H26zM26 15H54V16H26zM26 19H54V20H26z"/><path fill="#ba9b48" d="M40 44A2 2 0 1 0 40 48 2 2 0 1 0 40 44zM48 44A2 2 0 1 0 48 48 2 2 0 1 0 48 44zM56 44A2 2 0 1 0 56 48 2 2 0 1 0 56 44zM64 44A2 2 0 1 0 64 48 2 2 0 1 0 64 44zM16 44A2 2 0 1 0 16 48 2 2 0 1 0 16 44zM24 44A2 2 0 1 0 24 48 2 2 0 1 0 24 44zM32 44A2 2 0 1 0 32 48 2 2 0 1 0 32 44zM40 56A2 2 0 1 0 40 60 2 2 0 1 0 40 56zM48 56A2 2 0 1 0 48 60 2 2 0 1 0 48 56zM56 56A2 2 0 1 0 56 60 2 2 0 1 0 56 56zM64 56A2 2 0 1 0 64 60 2 2 0 1 0 64 56zM16 56A2 2 0 1 0 16 60 2 2 0 1 0 16 56zM24 56A2 2 0 1 0 24 60 2 2 0 1 0 24 56zM32 56A2 2 0 1 0 32 60 2 2 0 1 0 32 56zM44 50A2 2 0 1 0 44 54 2 2 0 1 0 44 50zM52 50A2 2 0 1 0 52 54 2 2 0 1 0 52 50zM60 50A2 2 0 1 0 60 54 2 2 0 1 0 60 50zM20 50A2 2 0 1 0 20 54 2 2 0 1 0 20 50zM28 50A2 2 0 1 0 28 54 2 2 0 1 0 28 50zM36 50A2 2 0 1 0 36 54 2 2 0 1 0 36 50zM60 62A2 2 0 1 0 60 66 2 2 0 1 0 60 62zM20 62A2 2 0 1 0 20 66 2 2 0 1 0 20 62zM52 62c-.372 0-23.628 0-24 0-1.105 0-2 .895-2 2 0 1.104.895 2 2 2 .372 0 23.628 0 24 0 1.105 0 2-.896 2-2C54 62.895 53.105 62 52 62z"/></svg>