<svg xmlns="http://www.w3.org/2000/svg" xmlns:xlink="http://www.w3.org/1999/xlink" viewBox="0 0 100 100"><path fill="#c7ede6" d="M87.215,56.71C88.35,54.555,89,52.105,89,49.5c0-6.621-4.159-12.257-10.001-14.478 C78.999,35.015,79,35.008,79,35c0-11.598-9.402-21-21-21c-9.784,0-17.981,6.701-20.313,15.757C36.211,29.272,34.638,29,33,29 c-7.692,0-14.023,5.793-14.89,13.252C12.906,43.353,9,47.969,9,53.5C9,59.851,14.149,65,20.5,65c0.177,0,0.352-0.012,0.526-0.022 C21.022,65.153,21,65.324,21,65.5C21,76.822,30.178,86,41.5,86c6.437,0,12.175-2.972,15.934-7.614C59.612,80.611,62.64,82,66,82 c4.65,0,8.674-2.65,10.666-6.518C77.718,75.817,78.837,76,80,76c6.075,0,11-4.925,11-11C91,61.689,89.53,58.727,87.215,56.71z"/><path fill="#fdfcef" d="M79.875,56.5c0,0,3.64,0,6.125,0s4.5-2.015,4.5-4.5c0-2.333-1.782-4.229-4.055-4.455 C86.467,47.364,86.5,47.187,86.5,47c0-2.485-2.015-4.5-4.5-4.5c-1.438,0-2.703,0.686-3.527,1.736 C78.333,41.6,76.171,39.5,73.5,39.5c-2.761,0-5,2.239-5,5c0,0.446,0.077,0.87,0.187,1.282C68.045,45.005,67.086,44.5,66,44.5 c-1.781,0-3.234,1.335-3.455,3.055C62.364,47.533,62.187,47.5,62,47.5c-2.485,0-4.5,2.015-4.5,4.5s2.015,4.5,4.5,4.5s9.5,0,9.5,0 h5.375V57h3V56.5z"/><path fill="#fff" d="M15.405,51H5.5C5.224,51,5,50.776,5,50.5S5.224,50,5.5,50h9.905c0.276,0,0.5,0.224,0.5,0.5 S15.682,51,15.405,51z M18.5,51h-1c-0.276,0-0.5-0.224-0.5-0.5s0.224-0.5,0.5-0.5h1c0.276,0,0.5,0.224,0.5,0.5S18.777,51,18.5,51z M23.491,53H14.5c-0.276,0-0.5-0.224-0.5-0.5s0.224-0.5,0.5-0.5h8.991c0.276,0,0.5,0.224,0.5,0.5S23.767,53,23.491,53z M12.5,53h-1 c-0.276,0-0.5-0.224-0.5-0.5s0.224-0.5,0.5-0.5h1c0.276,0,0.5,0.224,0.5,0.5S12.777,53,12.5,53z M9.5,53h-2 C7.224,53,7,52.776,7,52.5S7.224,52,7.5,52h2c0.276,0,0.5,0.224,0.5,0.5S9.777,53,9.5,53z M15.5,55h-2c-0.276,0-0.5-0.224-0.5-0.5 s0.224-0.5,0.5-0.5h2c0.276,0,0.5,0.224,0.5,0.5S15.776,55,15.5,55z M18.5,46c-0.177,0-0.823,0-1,0c-0.276,0-0.5,0.224-0.5,0.5 s0.224,0.5,0.5,0.5c0.177,0,0.823,0,1,0c0.276,0,0.5-0.224,0.5-0.5S18.776,46,18.5,46z M18.5,48c-0.177,0-4.823,0-5,0 c-0.276,0-0.5,0.224-0.5,0.5s0.224,0.5,0.5,0.5c0.177,0,4.823,0,5,0c0.276,0,0.5-0.224,0.5-0.5S18.776,48,18.5,48z M23.5,50 c-0.177,0-2.823,0-3,0c-0.276,0-0.5,0.224-0.5,0.5s0.224,0.5,0.5,0.5c0.177,0,2.823,0,3,0c0.276,0,0.5-0.224,0.5-0.5 S23.776,50,23.5,50z M72.5,24h-10c-0.276,0-0.5-0.224-0.5-0.5s0.224-0.5,0.5-0.5h10c0.276,0,0.5,0.224,0.5,0.5S72.776,24,72.5,24z M76.5,24h-2c-0.276,0-0.5-0.224-0.5-0.5s0.224-0.5,0.5-0.5h2c0.276,0,0.5,0.224,0.5,0.5S76.776,24,76.5,24z M81.5,26h-10 c-0.276,0-0.5-0.224-0.5-0.5s0.224-0.5,0.5-0.5h10c0.276,0,0.5,0.224,0.5,0.5S81.777,26,81.5,26z M69.5,26h-1 c-0.276,0-0.5-0.224-0.5-0.5s0.224-0.5,0.5-0.5h1c0.276,0,0.5,0.224,0.5,0.5S69.776,26,69.5,26z M66.375,26H64.5 c-0.276,0-0.5-0.224-0.5-0.5s0.224-0.5,0.5-0.5h1.875c0.276,0,0.5,0.224,0.5,0.5S66.651,26,66.375,26z M75.5,22h-5 c-0.276,0-0.5-0.224-0.5-0.5s0.224-0.5,0.5-0.5h5c0.276,0,0.5,0.224,0.5,0.5S75.777,22,75.5,22z M72.5,28h-2 c-0.276,0-0.5-0.224-0.5-0.5s0.224-0.5,0.5-0.5h2c0.276,0,0.5,0.224,0.5,0.5S72.776,28,72.5,28z"/><path fill="#472b29" d="M73.5,39c-3.033,0-5.5,2.467-5.5,5.5c0,0.016,0,0.031,0,0.047C67.398,44.192,66.71,44,66,44 c-1.831,0-3.411,1.261-3.858,3.005C62.095,47.002,62.048,47,62,47c-2.757,0-5,2.243-5,5s2.243,5,5,5h14.875 c0.276,0,0.5-0.224,0.5-0.5s-0.224-0.5-0.5-0.5H62c-2.206,0-4-1.794-4-4s1.794-4,4-4c0.117,0,0.23,0.017,0.343,0.032l0.141,0.019 c0.021,0.003,0.041,0.004,0.062,0.004c0.246,0,0.462-0.185,0.495-0.437C63.232,46.125,64.504,45,66,45 c0.885,0,1.723,0.401,2.301,1.1c0.098,0.118,0.241,0.182,0.386,0.182c0.078,0,0.156-0.018,0.228-0.056 c0.209-0.107,0.314-0.346,0.254-0.573C69.054,45.218,69,44.852,69,44.5c0-2.481,2.019-4.5,4.5-4.5c2.381,0,4.347,1.872,4.474,4.263 c0.011,0.208,0.15,0.387,0.349,0.45c0.05,0.016,0.101,0.024,0.152,0.024c0.15,0,0.296-0.069,0.392-0.192 C79.638,43.563,80.779,43,82,43c2.206,0,4,1.794,4,4c0,0.117-0.017,0.23-0.032,0.343l-0.019,0.141 c-0.016,0.134,0.022,0.268,0.106,0.373s0.207,0.172,0.34,0.185C88.451,48.247,90,49.949,90,52c0,2.206-1.794,4-4,4h-6.125 c-0.276,0-0.5,0.224-0.5,0.5s0.224,0.5,0.5,0.5H86c2.757,0,5-2.243,5-5c0-2.397-1.689-4.413-4.003-4.877 C86.999,47.082,87,47.041,87,47c0-2.757-2.243-5-5-5c-1.176,0-2.293,0.416-3.183,1.164C78.219,40.76,76.055,39,73.5,39L73.5,39z"/><path fill="#472b29" d="M72,46c-1.403,0-2.609,0.999-2.913,2.341C68.72,48.119,68.301,48,67.875,48 c-1.202,0-2.198,0.897-2.353,2.068C65.319,50.022,65.126,50,64.938,50c-1.529,0-2.811,1.2-2.918,2.732 C62.01,52.87,62.114,52.99,62.251,53c0.006,0,0.012,0,0.018,0c0.13,0,0.24-0.101,0.249-0.232c0.089-1.271,1.151-2.268,2.419-2.268 c0.229,0,0.47,0.042,0.738,0.127c0.022,0.007,0.045,0.01,0.067,0.01c0.055,0,0.11-0.02,0.156-0.054 C65.962,50.537,66,50.455,66,50.375c0-1.034,0.841-1.875,1.875-1.875c0.447,0,0.885,0.168,1.231,0.473 c0.047,0.041,0.106,0.063,0.165,0.063c0.032,0,0.063-0.006,0.093-0.019c0.088-0.035,0.148-0.117,0.155-0.212 C69.623,47.512,70.712,46.5,72,46.5c0.208,0,0.425,0.034,0.682,0.107c0.023,0.007,0.047,0.01,0.07,0.01 c0.109,0,0.207-0.073,0.239-0.182c0.038-0.133-0.039-0.271-0.172-0.309C72.517,46.04,72.256,46,72,46L72,46z M85.883,47.5 c-1.326,0-2.508,0.897-2.874,2.182c-0.038,0.133,0.039,0.271,0.172,0.309C83.205,49.997,83.228,50,83.25,50 c0.109,0,0.209-0.072,0.24-0.182C83.795,48.748,84.779,48,85.883,48c0.117,0,0.23,0.014,0.342,0.029 c0.012,0.002,0.023,0.003,0.035,0.003c0.121,0,0.229-0.092,0.246-0.217c0.019-0.137-0.077-0.263-0.214-0.281 C86.158,47.516,86.022,47.5,85.883,47.5L85.883,47.5z"/><path fill="#355ca8" d="M37,71.3c-4.025,0-7.3-3.274-7.3-7.3V36c0-4.025,3.274-7.3,7.3-7.3h28c4.025,0,7.3,3.274,7.3,7.3v28 c0,4.025-3.274,7.3-7.3,7.3H37z"/><path fill="#472b29" d="M65,29.4c3.639,0,6.6,2.961,6.6,6.6v28c0,3.639-2.961,6.6-6.6,6.6H37c-3.639,0-6.6-2.961-6.6-6.6V36 c0-3.639,2.961-6.6,6.6-6.6H65 M65,28H37c-4.418,0-8,3.582-8,8v28c0,4.418,3.582,8,8,8h28c4.418,0,8-3.582,8-8V36 C73,31.582,69.418,28,65,28L65,28z"/><path fill="#472b29" d="M68.446,47.511c-0.276,0-0.5-0.224-0.5-0.5v-3.706c0-0.276,0.224-0.5,0.5-0.5s0.5,0.224,0.5,0.5 v3.706C68.946,47.287,68.722,47.511,68.446,47.511z"/><path fill="#472b29" d="M68.508,41.06c-0.276,0-0.5-0.224-0.5-0.5v-1.913c0-0.276,0.224-0.5,0.5-0.5s0.5,0.224,0.5,0.5 v1.913C69.008,40.836,68.785,41.06,68.508,41.06z"/><path fill="#472b29" d="M64.251,67.938H37.812c-2.619,0-4.749-2.131-4.749-4.749v-26.44c0-2.618,2.13-4.749,4.749-4.749 h23.96c0.276,0,0.5,0.224,0.5,0.5s-0.224,0.5-0.5,0.5h-23.96c-2.067,0-3.749,1.682-3.749,3.749v26.439 c0,2.067,1.682,3.749,3.749,3.749h26.439c2.067,0,3.749-1.682,3.749-3.749V49.614c0-0.276,0.224-0.5,0.5-0.5s0.5,0.224,0.5,0.5 v13.574C69,65.807,66.87,67.938,64.251,67.938z"/><path fill="#55a7f9" d="M48,52.251c0-2.6,1.71-4.93,4.44-6.54c0.52,0.15,1.01,0.39,1.47,0.71l7.37,5.24 c1.63,1.16,1.63,3.52,0,4.68l-5.47,3.89C51.2,58.861,48,55.801,48,52.251z"/><path fill="#18c9c4" d="M40.72,51.661l7.37-5.24c1.28-0.91,2.9-1.15,4.35-0.71c-2.73,1.61-4.44,3.94-4.44,6.54 c0,3.55,3.2,6.61,7.81,7.98l-1.9,1.35c-1.73,1.23-4.09,1.23-5.82,0l-7.37-5.24C39.09,55.181,39.09,52.821,40.72,51.661z"/><path fill="#472b29" d="M51,63.004c-1.121,0-2.243-0.341-3.2-1.021l-7.37-5.236C39.521,56.101,39,55.1,39,54 s0.521-2.101,1.43-2.746l7.37-5.236c1.914-1.361,4.486-1.361,6.4,0l7.37,5.236C62.479,51.899,63,52.9,63,54 s-0.521,2.101-1.43,2.746l-7.37,5.236C53.243,62.663,52.121,63.004,51,63.004z M51,45.996c-0.918,0-1.837,0.279-2.62,0.836 l-7.37,5.236C40.368,52.524,40,53.229,40,54s0.368,1.476,1.01,1.932l7.37,5.236c1.566,1.113,3.674,1.113,5.24,0l7.37-5.236 C61.632,55.476,62,54.771,62,54s-0.368-1.476-1.01-1.932l-7.37-5.236C52.837,46.275,51.918,45.996,51,45.996z"/><path fill="#fc7c59" d="M52,47.75c0,2.33-1.37,4.44-3.63,6.01c-0.09-0.05-0.19-0.11-0.28-0.18l-7.37-5.24 c-1.63-1.16-1.63-3.52,0-4.68l4.81-3.42C49.41,41.76,52,44.55,52,47.75z"/><path fill="#ef657d" d="M61.28,48.34l-7.37,5.24c-1.64,1.16-3.84,1.23-5.54,0.18c2.26-1.57,3.63-3.68,3.63-6.01 c0-3.2-2.59-5.99-6.47-7.51l2.56-1.82c1.73-1.23,4.09-1.23,5.82,0l7.37,5.24C62.91,44.82,62.91,47.18,61.28,48.34z"/><path fill="#472b29" d="M51,55.004c-1.121,0-2.243-0.341-3.2-1.021l-7.37-5.236C39.521,48.101,39,47.1,39,46 s0.521-2.101,1.43-2.746l7.37-5.236c1.914-1.361,4.486-1.361,6.4,0l7.37,5.236C62.479,43.899,63,44.9,63,46 s-0.521,2.101-1.43,2.746l-7.37,5.236C53.243,54.663,52.121,55.004,51,55.004z M51,37.996c-0.918,0-1.837,0.279-2.62,0.836 l-7.37,5.236C40.368,44.524,40,45.229,40,46s0.368,1.476,1.01,1.932l7.37,5.236c1.566,1.113,3.674,1.113,5.24,0l7.37-5.236 C61.632,47.476,62,46.771,62,46s-0.368-1.476-1.01-1.932l-7.37-5.236C52.837,38.275,51.918,37.996,51,37.996z"/><path fill="#fdfcef" d="M36.5,73.5c0,0,1.567,0,3.5,0s3.5-1.567,3.5-3.5c0-1.781-1.335-3.234-3.055-3.455 C40.473,66.366,40.5,66.187,40.5,66c0-1.933-1.567-3.5-3.5-3.5c-1.032,0-1.95,0.455-2.59,1.165 c-0.384-1.808-1.987-3.165-3.91-3.165c-2.209,0-4,1.791-4,4c0,0.191,0.03,0.374,0.056,0.558C26.128,64.714,25.592,64.5,25,64.5 c-1.228,0-2.245,0.887-2.455,2.055C22.366,66.527,22.187,66.5,22,66.5c-1.933,0-3.5,1.567-3.5,3.5s1.567,3.5,3.5,3.5s7.5,0,7.5,0 V74h7V73.5z"/><path fill="#472b29" d="M38.25,69C38.112,69,38,68.888,38,68.75c0-1.223,0.995-2.218,2.218-2.218 c0.034,0.009,0.737-0.001,1.244,0.136c0.133,0.036,0.212,0.173,0.176,0.306c-0.036,0.134-0.173,0.213-0.306,0.176 c-0.444-0.12-1.1-0.12-1.113-0.118c-0.948,0-1.719,0.771-1.719,1.718C38.5,68.888,38.388,69,38.25,69z M31.5,73 c-0.276,0-0.5,0.224-0.5,0.5s0.224,0.5,0.5,0.5s0.5-0.224,0.5-0.5S31.776,73,31.5,73z"/><path fill="#472b29" d="M40,74h-3.5c-0.276,0-0.5-0.224-0.5-0.5s0.224-0.5,0.5-0.5H40c1.654,0,3-1.346,3-3 c0-1.496-1.125-2.768-2.618-2.959c-0.134-0.018-0.255-0.088-0.336-0.196s-0.115-0.244-0.094-0.377C39.975,66.314,40,66.16,40,66 c0-1.654-1.346-3-3-3c-0.85,0-1.638,0.355-2.219,1c-0.125,0.139-0.321,0.198-0.5,0.148c-0.182-0.049-0.321-0.195-0.36-0.379 C33.58,62.165,32.141,61,30.5,61c-1.93,0-3.5,1.57-3.5,3.5c0,0.143,0.021,0.28,0.041,0.418c0.029,0.203-0.063,0.438-0.242,0.54 s-0.396,0.118-0.556-0.01C25.878,65.155,25.449,65,25,65c-0.966,0-1.792,0.691-1.963,1.644c-0.048,0.267-0.296,0.446-0.569,0.405 C22.314,67.025,22.16,67,22,67c-1.654,0-3,1.346-3,3s1.346,3,3,3h7.5c0.276,0,0.5,0.224,0.5,0.5S29.776,74,29.5,74H22 c-2.206,0-4-1.794-4-4s1.794-4,4-4c0.059,0,0.116,0.002,0.174,0.006C22.588,64.82,23.711,64,25,64c0.349,0,0.689,0.061,1.011,0.18 C26.176,61.847,28.126,60,30.5,60c1.831,0,3.466,1.127,4.153,2.774C35.333,62.276,36.155,62,37,62c2.206,0,4,1.794,4,4 c0,0.048-0.001,0.095-0.004,0.142C42.739,66.59,44,68.169,44,70C44,72.206,42.206,74,40,74z"/><path fill="#472b29" d="M34.5,73c-0.159,0-0.841,0-1,0c-0.276,0-0.5,0.224-0.5,0.5s0.224,0.5,0.5,0.5c0.159,0,0.841,0,1,0 c0.276,0,0.5-0.224,0.5-0.5S34.776,73,34.5,73z"/></svg>