<svg xmlns="http://www.w3.org/2000/svg" xmlns:xlink="http://www.w3.org/1999/xlink" width="48" height="48" viewBox="0 0 48 48"><path fill="#E0B990" d="M20,10L9,31v3c0,0,7,8,22,8l10-23C26,19,20.858,11.933,20,10z"/><path fill="#FFE0B2" d="M9,32c0,0,9.188,6.25,20.563,4.063L40,14c0,0-10,3-20-3L9,29.996V32z"/><path fill="#B78B69" d="M7 30H9V34H7z"/><path fill="#FF3D00" d="M7,30h2c3.676,0.934,12.918,3.041,19,0L40,6c0,0-9,4-20,3h-2L7,30z"/><path fill="#DD2C00" d="M7 30L9 30 20 9 18 9z"/><path fill="#FFCCBC" d="M28.668 20.996l.928-1.485c.416-1.369.15-1.959-1.082-1.959-.617 0-1.881-.058-1.707-.629.176-.576.176-.635.577-.904.375-.251.903-.504 1.407-1.885.732-2.024-.377-3.032-2.361-2.963-2.188.075-2.698 1.6-3.099 2.682-.246.656.093 1.531.489 1.834.23.179-.031.434-.201.893-.251.66-1.494.633-2.066.858-1.494.595-1.678.772-2.436 2.153-.65 1.175-1.863 3.383-1.863 3.383C19.867 23.165 25.568 23.835 28.668 20.996zM19.029 27.318c.271-.338.822-.555 1.193-.219.173.155.125.416.276.586.163.176.366.181.596.17.559-.026.818-.551 1.135-.933.232-.274.691-.952 1.093-.723.342.196.349.635.764.768.358.115.653.029.971-.135.457-.237.494-.353.711-.794.403-.825.811-1.649 1.232-2.511-.414.25-.855.418-1.295.62-.297.134-.616.253-.825.52-.185.232-.369.441-.682.379-.417-.089-.059-.445-.354-.571-.256-.107-.838.088-1.096.135-.446.076-.788.127-1.037.56-.233.402-.59 1.204-1.192.888-.478-.25.198-.939-.326-1.195-.369-.18-1.064-.041-1.315.262-.308.377-.489 1.021-.979 1.214-.576.229-.827-.255-.73-.745.072-.354.474-.889-.106-.951-.487-.051-1.322-.393-1.61.082-.198.328-.349.702-.52 1.049-.322.65-.647 1.305-.97 1.953.024-.051 1.021.166 1.144.154.468-.039.706-.482 1.035-.75.273-.225.942-.432 1.248-.203.372.282.081.864.626 1.038C18.532 28.134 18.77 27.652 19.029 27.318z"/></svg>