<svg xmlns="http://www.w3.org/2000/svg" xmlns:xlink="http://www.w3.org/1999/xlink" viewBox="0 0 48 48"><path fill="#e38939" d="M12,40V8c0-2.2,1.8-4,4-4h16c2.2,0,4,1.8,4,4v32c0,2.2-1.8,4-4,4H16C13.8,44,12,42.2,12,40z"/><path fill="#fff3e0" d="M32,7H16c-0.6,0-1,0.4-1,1v29c0,0.6,0.4,1,1,1h16c0.6,0,1-0.4,1-1V8C33,7.4,32.6,7,32,7z"/><path fill="#a6642a" d="M25.5,41c0,0.8-0.7,1.5-1.5,1.5s-1.5-0.7-1.5-1.5s0.7-1.5,1.5-1.5S25.5,40.2,25.5,41z"/><path fill="#e91e63" d="M26,23c0,1.1-0.9,2-2,2s-2-0.9-2-2s0.9-2,2-2S26,21.9,26,23z"/><path fill="#f48fb1" d="M24,28c-2.8,0-5-2.2-5-5s2.2-5,5-5s5,2.2,5,5S26.8,28,24,28z M24,20c-1.7,0-3,1.3-3,3s1.3,3,3,3 s3-1.3,3-3S25.7,20,24,20z"/><path fill="#f8bbd0" d="M24,30c-3.9,0-7-3.1-7-7c0-3.9,3.1-7,7-7c3.9,0,7,3.1,7,7C31,26.9,27.9,30,24,30z M24,17 c-3.3,0-6,2.7-6,6s2.7,6,6,6s6-2.7,6-6S27.3,17,24,17z"/></svg>