<svg xmlns="http://www.w3.org/2000/svg" xmlns:xlink="http://www.w3.org/1999/xlink" width="48" height="48" viewBox="0 0 48 48"><path fill="#F44336" d="M41,13V7c0-0.553-0.447-1-1-1H8C7.447,6,7,6.447,7,7v6H41z"/><path fill="#FFC107" d="M36 42L12 42 9 13 39 13z"/><path fill="#FFF" d="M34,33c0,0.553-0.447,1-1,1H15c-0.553,0-1-0.447-1-1V20c0-0.553,0.447-1,1-1h18c0.553,0,1,0.447,1,1V33z"/><path fill="#FFF" d="M20,12c0-1.656-1.343-3-3-3l0,0c-1.657,0-3,1.344-3,3v7c0,1.656,1.343,2,3,2l0,0c1.657,0,3-0.344,3-2V12z"/><g><path fill="#B0BEC5" d="M17 23H31V25H17zM17 28H31V30H17z"/></g></svg>