<svg xmlns="http://www.w3.org/2000/svg" xmlns:xlink="http://www.w3.org/1999/xlink" viewBox="0 0 48 48"><path fill="#2196f3" d="M31,15v28H9c-2.2,0-4-1.8-4-4V15H31z"/><path fill="#bbdefb" d="M13,5v34c0,2.2-1.8,4-4,4h29c2.2,0,4-1.8,4-4V5H13z"/><path fill="#64b5f6" d="M19,10h18v4H19V10z M19,17h8v2h-8V17z M29,17h8v2h-8V17z M19,21h8v2h-8V21z M29,21h8v2h-8V21z M19,25h8v2h-8V25z M29,25h8v2h-8V25z M19,29h8v2h-8V29z M29,29h8v2h-8V29z M19,33h8v2h-8V33z M29,33h8v2h-8V33z M19,37h8v2h-8V37z M29,37h8v2h-8V37z"/><path fill="#e53935" d="M27 33H47V47H27z"/><path fill="#3f51b5" d="M27 33H37V39H27z"/><path fill="#fafafa" d="M47,37H37v-2h10V37z M47,39H27v2h20V39z M47,43H27v2h20V43z M30,35L30,35c0-0.552-0.448-1-1-1h0c-0.552,0-1,0.448-1,1l0,0c0,0.552,0.448,1,1,1h0C29.552,36,30,35.552,30,35z M32,37L32,37c0-0.552-0.448-1-1-1h0c-0.552,0-1,0.448-1,1l0,0c0,0.552,0.448,1,1,1h0C31.552,38,32,37.552,32,37z M34,35L34,35c0-0.552-0.448-1-1-1l0,0c-0.552,0-1,0.448-1,1l0,0c0,0.552,0.448,1,1,1l0,0C33.552,36,34,35.552,34,35z M36,37L36,37c0-0.552-0.448-1-1-1l0,0c-0.552,0-1,0.448-1,1l0,0c0,0.552,0.448,1,1,1l0,0C35.552,38,36,37.552,36,37z"/></svg>