<svg xmlns="http://www.w3.org/2000/svg" xmlns:xlink="http://www.w3.org/1999/xlink" width="48" height="48" viewBox="0 0 48 48"><path fill="#ffc107" d="M5,11h38v4H5V11z"/><path fill="#ff9800" d="M7,15h4v24H7V15z"/><path fill="#ff9800" d="M39,15h2v24h-2V15z"/><path fill="#ff9800" d="M27,15h2v24h-2V15z"/><path fill="#f57c00" d="M11,15h22v5H11V15z"/><path fill="#ffc107" d="M27,15h14v7H27V15z"/><path fill="#ffc107" d="M27,22h14v7H27V22z"/><path fill="#ffc107" d="M27,29h14v7H27V29z"/><path fill="#ffa000" d="M27,15h14v2H27V15z"/><path fill="#ef6c00" d="M11,15h15.995v2H11V15z"/><path fill="#ff6f00" d="M7,15.006h4v1.987H7V15.006z"/><circle cx="34" cy="18.5" r="1.094" fill="#827717"/><circle cx="34" cy="25.5" r="1.094" fill="#827717"/><circle cx="34" cy="32.5" r="1.094" fill="#827717"/></svg>