<svg xmlns="http://www.w3.org/2000/svg" xmlns:xlink="http://www.w3.org/1999/xlink" viewBox="0 0 80 80"><path fill="#8bb7f0" d="M2.5 10.5H77.5V69.5H2.5z"/><path fill="#4e7ab5" d="M77,11v58H3V11H77 M78,10H2v60h76V10L78,10z"/><path fill="#36404d" d="M3 62H77V69H3z"/><path fill="#ffeea3" d="M10.5 20.5H21.5V31.5H10.5z"/><path fill="#ba9b48" d="M21,21v10H11V21H21 M22,20H10v12h12V20L22,20z"/><g><path fill="#ffeea3" d="M10.5 36.5H21.5V47.5H10.5z"/><path fill="#ba9b48" d="M21,37v10H11V37H21 M22,36H10v12h12V36L22,36z"/></g></svg>