<svg xmlns="http://www.w3.org/2000/svg" xmlns:xlink="http://www.w3.org/1999/xlink" viewBox="0 0 48 48"><path fill="#1e4384" d="M38.441,3.649c-5,0-4.603-0.057-9.103-0.052c-3.752,0.004-5.209,0.483-7.899,0.33c-2.228-0.127-4.42-0.438-6.647-0.291c-3.044,0.2-5.686-0.313-7.611,1.359c-2.136,1.856-2.745,4.958-2.852,7.13c-0.108,2.172-0.189,6.577,0.047,8.739c0.611,5.605,0.358,9.159,0.13,14.793c-0.083,2.056-0.569,5.059,1.152,6.898c1.354,1.446,3.01,1.654,6.381,1.612c4.447-0.057,7.87-0.134,12.317-0.111c1.699,0.009,3.553,0.098,5.253,0.106c1.371,0.007,4.268-0.23,5.638-0.252c1.275-0.02,3.327,0.069,4.629-0.075c5.396-0.595,5.103-8.672,4.904-13.027c-0.23-5.02-0.339-3.659-0.339-8.659c0-1.388,0.323-3.712,0.335-6.362c0.016-3.513,0.001-5.052-0.335-7.138C43.957,5.646,42.35,3.456,38.441,3.649"/><path fill="#010101" d="M11.355,44.671c-3.036,0-4.692-0.312-6.062-1.774c-1.632-1.742-1.469-4.309-1.337-6.371c0.02-0.311,0.039-0.609,0.05-0.89l0.073-1.732c0.199-4.652,0.342-8.014-0.2-12.985C3.648,18.8,3.711,14.486,3.83,12.1c0.094-1.896,0.612-5.387,3.024-7.482c1.592-1.384,3.623-1.402,5.773-1.421c0.684-0.006,1.396-0.012,2.132-0.061c1.623-0.105,3.236,0.024,4.798,0.151c0.635,0.052,1.271,0.104,1.91,0.14c1.37,0.078,2.422-0.014,3.641-0.119c1.133-0.098,2.417-0.21,4.229-0.211c2.245,0.005,3.269,0.011,4.352,0.024c1.09,0.014,2.237,0.028,4.739,0.028c3.717-0.172,5.898,1.645,6.506,5.421c0.35,2.169,0.357,3.78,0.342,7.219c-0.007,1.535-0.119,2.986-0.209,4.153c-0.067,0.876-0.126,1.633-0.126,2.207c0,3.135,0.044,3.768,0.132,5.029c0.053,0.758,0.122,1.745,0.207,3.606c0.192,4.184,0.591,12.892-5.348,13.546c-0.926,0.102-2.194,0.093-3.314,0.08c-0.499-0.005-0.968-0.008-1.362-0.002c-0.61,0.01-1.524,0.062-2.47,0.117c-1.184,0.067-2.426,0.118-3.179,0.134c-0.858-0.004-1.757-0.028-2.655-0.053c-0.879-0.024-1.757-0.049-2.598-0.053c-3.38-0.018-6.112,0.022-9.272,0.068l-3.036,0.043C11.808,44.669,11.577,44.671,11.355,44.671z M16.025,4.096c-0.399,0-0.798,0.012-1.2,0.038c-0.756,0.05-1.487,0.057-2.189,0.062C10.59,4.214,8.823,4.229,7.51,5.371c-2.132,1.854-2.595,5.042-2.681,6.777c-0.117,2.354-0.181,6.598,0.044,8.66c0.55,5.048,0.406,8.441,0.205,13.138l-0.073,1.73c-0.012,0.287-0.031,0.594-0.051,0.912c-0.119,1.87-0.267,4.197,1.069,5.624c1.22,1.302,2.773,1.494,6.01,1.453l3.034-0.042c3.166-0.048,5.901-0.09,9.292-0.069c0.848,0.004,1.734,0.028,2.62,0.053c0.891,0.024,1.781,0.049,2.633,0.053c0.752-0.005,1.949-0.065,3.116-0.133c0.962-0.055,1.892-0.108,2.512-0.118c0.4-0.006,0.878-0.004,1.387,0.002c1.092,0.013,2.329,0.021,3.196-0.074c5.007-0.552,4.637-8.626,4.458-12.507c-0.084-1.849-0.153-2.829-0.206-3.582c-0.089-1.284-0.134-1.929-0.134-5.099c0-0.613,0.06-1.388,0.129-2.284c0.094-1.21,0.2-2.582,0.207-4.08c0.017-3.613-0.006-5.056-0.329-7.056c-0.522-3.239-2.333-4.729-5.481-4.581l-0.025,0.001c-2.518,0-3.669-0.015-4.764-0.028c-1.08-0.014-2.104-0.021-4.338-0.024c-1.769,0.001-3.03,0.111-4.144,0.208c-1.257,0.108-2.341,0.203-3.785,0.12c-0.647-0.037-1.291-0.089-1.934-0.141C18.295,4.188,17.162,4.096,16.025,4.096z"/><path fill="#16b7b8" d="M16.743,21.722c-2.231,1.325-3.379,2.374-4.854,3.707c-1.475,1.332-2.415,3.457-1.784,5.342c0.521,1.554,1.944,2.597,3.291,3.53c2.036,1.41,4.082,2.807,6.136,4.191c0.987,0.665,2.819,1.614,4.165,1.616c2.618,0.003,4.006-1.191,5.746-2.381c2.996-2.051,5.012-4.048,6.982-7.098c0.583-0.903,1.091-1.918,1.064-2.992c-0.052-2.032-1.91-3.485-3.59-4.629c-1.31-0.892-2.62-1.784-3.93-2.675c-1.338-0.91-2.726-1.842-4.316-2.14C22.412,17.584,19.356,19.711,16.743,21.722"/><path fill="#71c598" d="M31.013,36.118c0,0-3.856-2.53-5.301-2.862c-1.446-0.331-3.374,0.09-5.392,0.331s-3.976,2.349-3.976,2.349l0.092,0.438c1.033,0.705,2.06,1.417,3.098,2.115c0.987,0.665,2.82,1.614,4.165,1.616c2.618,0.003,4.006-1.191,5.746-2.381c0.568-0.389,1.091-0.777,1.595-1.17L31.013,36.118z"/><path fill="#010101" d="M23.708,40.606c-0.003,0-0.007,0-0.01,0c-1.418-0.001-3.281-0.917-4.444-1.7c-1.278-0.861-2.553-1.727-3.824-2.599c-0.774-0.529-1.546-1.062-2.318-1.596c-1.519-1.053-2.928-2.134-3.48-3.782c-0.735-2.193,0.436-4.529,1.923-5.872c1.531-1.385,2.686-2.429,4.907-3.75c2.71-2.084,5.885-4.241,9.283-3.608c1.717,0.321,3.199,1.329,4.506,2.219l3.931,2.676c1.945,1.324,3.753,2.85,3.809,5.028c0.033,1.283-0.594,2.425-1.144,3.277c-1.946,3.013-4.009,5.109-7.12,7.239l-0.548,0.38C27.645,39.593,26.196,40.606,23.708,40.606z M24.499,18.584c-2.615,0-5.106,1.729-7.45,3.534l-0.05,0.033c-2.152,1.278-3.277,2.296-4.702,3.584c-1.316,1.188-2.308,3.112-1.716,4.876c0.455,1.358,1.727,2.326,3.102,3.278c0.77,0.532,1.541,1.064,2.313,1.593c1.269,0.871,2.542,1.734,3.817,2.594c1.093,0.736,2.775,1.529,3.887,1.53c0.003,0,0.006,0,0.009,0c2.173,0,3.436-0.884,4.897-1.907l0.557-0.387c3.032-2.075,4.952-4.025,6.845-6.956c0.472-0.73,1.01-1.699,0.983-2.709c-0.044-1.729-1.646-3.053-3.372-4.228l-3.93-2.676c-1.226-0.834-2.616-1.779-4.127-2.062C25.205,18.615,24.851,18.584,24.499,18.584z M16.743,21.722h0.01H16.743z"/><path fill="#f26322" d="M15.179,12.15c-1.248,0.833-2.41,1.795-3.462,2.866c-1.202,1.223-2.324,2.821-2.033,4.511c0.303,1.763,1.995,2.889,3.534,3.801c2.385,1.415,4.458,2.872,7.023,3.925c1.913,0.785,3.025,1.424,4.402,1.412c0.859-0.007,1.701-0.199,2.505-0.501c4.417-1.657,6.849-4.411,9.973-7.945c0.739-0.836,1.474-1.907,1.172-2.981c-0.207-0.736-0.802-1.526-2.229-2.85c-2.18-2.023-3.307-2.386-5.669-4.193c-0.971-0.743-2.61-1.595-3.768-1.989c-1.844-0.628-3.91-0.255-5.665,0.59S16.659,10.885,15.179,12.15"/><path fill="#010101" d="M31.012,36.618c-0.094,0-0.189-0.026-0.274-0.082c-1.052-0.69-4.025-2.537-5.139-2.792c-1.038-0.239-2.426-0.043-3.896,0.163c-0.434,0.062-0.877,0.124-1.324,0.177c-1.815,0.218-3.651,2.174-3.669,2.193c-0.188,0.203-0.505,0.214-0.707,0.026c-0.202-0.188-0.214-0.504-0.026-0.706c0.085-0.092,2.108-2.246,4.283-2.506c0.44-0.053,0.876-0.114,1.304-0.175c1.563-0.22,3.041-0.429,4.259-0.147c1.49,0.341,5.062,2.667,5.464,2.931c0.231,0.151,0.295,0.462,0.144,0.692C31.334,36.539,31.175,36.618,31.012,36.618z"/><path fill="#ed488b" d="M30.397,10.196c-0.971-0.743-2.61-1.595-3.768-1.989c-1.844-0.628-3.91-0.255-5.665,0.59c-0.933,0.449-2.09,1.013-3.192,1.631l-0.025,0.471c0,0,2.947,1.965,4.757,2.275c1.81,0.31,3.774,0.052,5.481-0.724c1.706-0.776,2.74-1.551,2.74-1.551l0.219-0.299C30.764,10.469,30.59,10.344,30.397,10.196z"/><path fill="#010101" d="M24.604,29.165c-1.178,0-2.141-0.416-3.468-0.989c-0.334-0.144-0.693-0.299-1.086-0.46c-1.961-0.806-3.608-1.823-5.353-2.9c-0.567-0.351-1.142-0.705-1.735-1.058c-1.648-0.978-3.434-2.186-3.771-4.146c-0.266-1.546,0.464-3.21,2.169-4.947c1.068-1.087,2.251-2.067,3.517-2.914c1.577-1.338,4.262-2.631,5.87-3.404c2.095-1.009,4.243-1.228,6.043-0.613c1.247,0.426,2.928,1.313,3.911,2.066c0.917,0.701,1.636,1.176,2.331,1.634c1.041,0.688,2.023,1.336,3.374,2.589c1.465,1.359,2.13,2.224,2.37,3.081c0.382,1.361-0.547,2.619-1.279,3.446c-3.155,3.569-5.642,6.384-10.172,8.083c-0.922,0.347-1.823,0.525-2.677,0.532C24.632,29.165,24.618,29.165,24.604,29.165z M24.653,8.392c-1.106,0-2.293,0.288-3.473,0.855c-1.571,0.757-4.202,2.022-5.676,3.283l-0.047,0.036c-1.218,0.812-2.356,1.755-3.383,2.8c-1.467,1.494-2.105,2.865-1.897,4.076c0.265,1.541,1.84,2.592,3.296,3.456c0.599,0.354,1.178,0.713,1.751,1.066c1.708,1.056,3.321,2.052,5.207,2.825c0.399,0.164,0.763,0.321,1.103,0.468c1.276,0.551,2.111,0.884,3.105,0.907c0.737-0.006,1.522-0.163,2.334-0.468c4.298-1.613,6.712-4.345,9.769-7.803c0.923-1.044,1.262-1.843,1.071-2.521c-0.183-0.653-0.788-1.412-2.087-2.618c-1.29-1.196-2.195-1.794-3.244-2.486c-0.676-0.446-1.442-0.952-2.388-1.675c-0.894-0.685-2.486-1.525-3.625-1.913C25.901,8.487,25.29,8.392,24.653,8.392z M15.179,12.15h0.01H15.179z"/><path fill="#010101" d="M24.039,13.803c-0.545,0-1.087-0.045-1.62-0.136c-1.892-0.324-4.826-2.269-4.95-2.352c-0.23-0.153-0.292-0.464-0.139-0.693c0.152-0.229,0.463-0.292,0.693-0.139c0.029,0.019,2.88,1.909,4.564,2.197c1.722,0.297,3.565,0.053,5.189-0.686c1.642-0.746,2.853-1.616,2.865-1.625c0.223-0.161,0.537-0.111,0.698,0.112s0.111,0.536-0.112,0.698c-0.053,0.038-1.305,0.938-3.037,1.725C26.887,13.498,25.456,13.803,24.039,13.803z"/></svg>