<svg xmlns="http://www.w3.org/2000/svg" xmlns:xlink="http://www.w3.org/1999/xlink" viewBox="0 0 48 48"><linearGradient id="ZPidCX4X9KKIYabdPve~Da" x1="17" x2="37" y1="653" y2="653" gradientTransform="matrix(1 0 0 -1 0 662)" gradientUnits="userSpaceOnUse"><stop offset="0" stop-color="#eba601"/><stop offset="1" stop-color="#c18310"/></linearGradient><path fill="url(#ZPidCX4X9KKIYabdPve~Da)" d="M37,10.21l-6.624-6.624c-0.766-0.766-2.003-0.783-2.79-0.038L17,13.578V15h20V10.21z"/><linearGradient id="ZPidCX4X9KKIYabdPve~Db" x1="11" x2="32" y1="654" y2="654" gradientTransform="matrix(1 0 0 -1 0 662)" gradientUnits="userSpaceOnUse"><stop offset="0" stop-color="#ffd056"/><stop offset=".293" stop-color="#fccb4e"/><stop offset=".719" stop-color="#f5be38"/><stop offset="1" stop-color="#efb423"/></linearGradient><path fill="url(#ZPidCX4X9KKIYabdPve~Db)" d="M21.819,1.561c-0.734-0.734-1.92-0.75-2.673-0.036L11,9.242V15h21v-3.258L21.819,1.561z"/><linearGradient id="ZPidCX4X9KKIYabdPve~Dc" x1="18.405" x2="33.814" y1="651.09" y2="618.516" gradientTransform="matrix(1 0 0 -1 0 662)" gradientUnits="userSpaceOnUse"><stop offset="0" stop-color="#32bdef"/><stop offset="1" stop-color="#1ea2e4"/></linearGradient><path fill="url(#ZPidCX4X9KKIYabdPve~Dc)" d="M39,10l-2.835,31.181C36.072,42.211,35.208,43,34.174,43H13.826 c-1.034,0-1.898-0.789-1.992-1.819L9,10H39z"/><path fill="#007ad9" d="M40,9C39.507,9,8.495,9,8,9c-0.552,0-1,0.448-1,1c0,0.552,0.448,1,1,1c0.495,0,31.507,0,32,0 c0.552,0,1-0.448,1-1C41,9.448,40.552,9,40,9z"/></svg>