<svg xmlns="http://www.w3.org/2000/svg" xmlns:xlink="http://www.w3.org/1999/xlink" viewBox="0 0 48 48"><path fill="#50e6ff" d="M34,4H14c-1.105,0-2,0.895-2,2v37c0,1.105,0.895,2,2,2h20c1.105,0,2-0.895,2-2V6C36,4.895,35.105,4,34,4z"/><rect width="20" height="30" x="14" y="9" fill="#1b9de2"/><path fill="#0c63ad" d="M26.5,6c-0.065,0-3.935,0-4,0C22.224,6,22,6.224,22,6.5C22,6.776,22.224,7,22.5,7c0.065,0,3.935,0,4,0C26.776,7,27,6.776,27,6.5C27,6.224,26.776,6,26.5,6z"/><circle cx="24" cy="42" r="2" fill="#1b9de2"/><circle cx="19.5" cy="6.5" r="1" fill="#0c63ad"/></svg>