<svg xmlns="http://www.w3.org/2000/svg" xmlns:xlink="http://www.w3.org/1999/xlink" viewBox="0 0 48 48"><radialGradient id="zMOeCeTnZv6YcHvUtUGm3a" cx="10.062" cy="9.438" r="40.916" gradientUnits="userSpaceOnUse"><stop offset="0" stop-color="#6fcefc"/><stop offset="1" stop-color="#167cf7"/></radialGradient><path fill="url(#zMOeCeTnZv6YcHvUtUGm3a)" d="M44,24c0,11.045-8.955,20-20,20S4,35.045,4,24S12.955,4,24,4S44,12.955,44,24z"/><radialGradient id="zMOeCeTnZv6YcHvUtUGm3b" cx="10.696" cy="8.05" r="40.918" gradientUnits="userSpaceOnUse"><stop offset=".001" stop-color="#54c0f5"/><stop offset=".998" stop-color="#0b69db"/></radialGradient><path fill="url(#zMOeCeTnZv6YcHvUtUGm3b)" d="M41,24c0-2.465-0.399-4.818-1.096-7h2.811c-0.256-0.685-0.546-1.353-0.873-2h-2.682C36.355,8.485,30.621,4,24,4S11.645,8.485,8.839,15H6.157c-0.327,0.647-0.616,1.315-0.873,2h2.811C7.399,19.182,7,21.535,7,24s0.399,4.818,1.096,7H5.285c0.256,0.685,0.546,1.353,0.873,2h2.682c2.806,6.515,8.54,11,15.161,11s12.355-4.485,15.161-11h2.682c0.327-0.647,0.616-1.315,0.873-2h-2.811C40.601,28.818,41,26.465,41,24z M39,24c0,2.481-0.421,4.847-1.181,7H31.51c0.323-2.266,0.49-4.65,0.49-7s-0.166-4.734-0.49-7h6.309C38.579,19.153,39,21.519,39,24z M24,42c-1.936,0-4.021-3.445-5.152-9h10.304C28.021,38.555,25.936,42,24,42z M18.5,31c-0.315-2.113-0.5-4.461-0.5-7s0.185-4.887,0.5-7H29.5c0.315,2.113,0.5,4.461,0.5,7s-0.185,4.887-0.5,7H18.5z M24,6c1.936,0,4.021,3.445,5.152,9H18.848C19.979,9.445,22.064,6,24,6z M36.97,15h-5.792c-0.639-3.33-1.643-6.272-2.994-8.273C31.922,8.033,35.054,11.038,36.97,15z M19.816,6.727c-1.35,2.002-2.355,4.943-2.994,8.273H11.03C12.946,11.038,16.078,8.033,19.816,6.727z M9,24c0-2.481,0.421-4.847,1.181-7h6.309C16.166,19.266,16,21.65,16,24s0.166,4.734,0.49,7h-6.309C9.421,28.847,9,26.481,9,24z M11.03,33h5.792c0.639,3.33,1.643,6.272,2.994,8.273C16.078,39.967,12.946,36.962,11.03,33z M28.184,41.273c1.35-2.002,2.355-4.943,2.994-8.273h5.792C35.054,36.962,31.922,39.967,28.184,41.273z"/><path d="M42.966,17.686c-1.985-5.963-6.695-10.671-12.659-12.655C28.289,6.682,27,9.19,27,12c0,2.438,0.974,4.647,2.549,6.268c0.009,0.009,5.744,5.749,5.744,5.749c0.391,0.391,1.024,0.391,1.414,0c0,0,5.735-5.74,5.744-5.749C42.632,18.082,42.802,17.886,42.966,17.686z" opacity=".05"/><path d="M42.761,17.126c-2.008-5.513-6.38-9.884-11.894-11.89C28.823,6.784,27.5,9.237,27.5,12c0,2.303,0.928,4.381,2.407,5.92c0.008,0.009,5.425,5.43,5.425,5.43c0.369,0.369,0.967,0.369,1.336,0c0,0,5.417-5.421,5.425-5.43C42.333,17.67,42.555,17.404,42.761,17.126z" opacity=".07"/><linearGradient id="zMOeCeTnZv6YcHvUtUGm3c" x1="30.344" x2="41.656" y1="6.343" y2="17.654" gradientUnits="userSpaceOnUse"><stop offset="0" stop-color="#d43a02"/><stop offset="1" stop-color="#b9360c"/></linearGradient><path fill="url(#zMOeCeTnZv6YcHvUtUGm3c)" d="M41.734,17.571C43.134,16.131,44,14.168,44,12c0-4.418-3.582-8-8-8s-8,3.582-8,8c0,2.168,0.866,4.131,2.266,5.571c0.008,0.008,5.106,5.111,5.106,5.111c0.347,0.347,0.91,0.347,1.257,0C36.629,22.682,41.726,17.58,41.734,17.571z"/><radialGradient id="zMOeCeTnZv6YcHvUtUGm3d" cx="36" cy="12" r="3.5" gradientUnits="userSpaceOnUse"><stop offset=".177"/><stop offset="1" stop-opacity="0"/></radialGradient><circle cx="36" cy="12" r="3.5" fill="url(#zMOeCeTnZv6YcHvUtUGm3d)"/><circle cx="36" cy="12" r="3" fill="#f9f9f9"/></svg>