<svg xmlns="http://www.w3.org/2000/svg" xmlns:xlink="http://www.w3.org/1999/xlink" viewBox="0 0 48 48"><linearGradient id="E1yuub14OBby4FSe5op1Fa" x1="44.852" x2="40.771" y1="26" y2="26" gradientUnits="userSpaceOnUse"><stop offset="0" stop-color="#d69400"/><stop offset=".057" stop-color="#d49200"/><stop offset=".554" stop-color="#c78600"/><stop offset="1" stop-color="#c28200"/></linearGradient><path fill="url(#E1yuub14OBby4FSe5op1Fa)" d="M43,11h-3v30h3c1.105,0,2-0.895,2-2V13C45,11.895,44.105,11,43,11z"/><linearGradient id="E1yuub14OBby4FSe5op1Fb" x1="23" x2="23" y1="7.174" y2="41.832" gradientUnits="userSpaceOnUse"><stop offset="0" stop-color="#fec52b"/><stop offset=".728" stop-color="#fdc429"/><stop offset="1" stop-color="#fac023"/></linearGradient><path fill="url(#E1yuub14OBby4FSe5op1Fb)" d="M41,39V9c0-1.105-0.895-2-2-2H5C3.895,7,3,7.895,3,9v30c0,1.105,0.895,2,2,2h38C41.895,41,41,40.105,41,39z"/><path fill="#fff" d="M37,17H7c-0.552,0-1-0.448-1-1v-2c0-0.552,0.448-1,1-1h30c0.552,0,1,0.448,1,1v2C38,16.552,37.552,17,37,17z"/><path fill="#fff" d="M19,35H7c-0.552,0-1-0.448-1-1V22c0-0.552,0.448-1,1-1h12c0.552,0,1,0.448,1,1v12C20,34.552,19.552,35,19,35z"/><path fill="#fff" d="M38,24H24v-2c0-0.552,0.448-1,1-1h12c0.552,0,1,0.448,1,1V24z"/><rect width="14" height="3" x="24" y="24" fill="#fff0c7"/><path fill="#ffe396" d="M37,30H25c-0.552,0-1-0.448-1-1v-2h14v2C38,29.552,37.552,30,37,30z"/></svg>