<svg xmlns="http://www.w3.org/2000/svg" xmlns:xlink="http://www.w3.org/1999/xlink" viewBox="0 0 48 48"><linearGradient id="puiLIdPFIkDHpSx0J2pbQa" x1="41.018" x2="45.176" y1="26" y2="26" gradientUnits="userSpaceOnUse"><stop offset="0" stop-color="#890d14"/><stop offset=".761" stop-color="#951f26"/><stop offset="1" stop-color="#9a262d"/></linearGradient><path fill="url(#puiLIdPFIkDHpSx0J2pbQa)" d="M43,11h-3v30h3c1.105,0,2-0.895,2-2V13C45,11.895,44.105,11,43,11z"/><linearGradient id="puiLIdPFIkDHpSx0J2pbQb" x1="23" x2="23" y1="7.174" y2="41.832" gradientUnits="userSpaceOnUse"><stop offset="0" stop-color="#f44f5a"/><stop offset=".443" stop-color="#ee3d4a"/><stop offset="1" stop-color="#e52030"/></linearGradient><path fill="url(#puiLIdPFIkDHpSx0J2pbQb)" d="M41,39V9c0-1.105-0.895-2-2-2H5C3.895,7,3,7.895,3,9v30c0,1.105,0.895,2,2,2h38C41.895,41,41,40.105,41,39z"/><path fill="#fff" d="M37,17H7c-0.552,0-1-0.448-1-1v-2c0-0.552,0.448-1,1-1h30c0.552,0,1,0.448,1,1v2C38,16.552,37.552,17,37,17z"/><path fill="#fff" d="M19,35H7c-0.552,0-1-0.448-1-1V22c0-0.552,0.448-1,1-1h12c0.552,0,1,0.448,1,1v12C20,34.552,19.552,35,19,35z"/><path fill="#fff" d="M38,24H24v-2c0-0.552,0.448-1,1-1h12c0.552,0,1,0.448,1,1V24z"/><rect width="14" height="3" x="24" y="24" fill="#ffb7bb"/><path fill="#f87e86" d="M37,30H25c-0.552,0-1-0.448-1-1v-2h14v2C38,29.552,37.552,30,37,30z"/></svg>