<svg xmlns="http://www.w3.org/2000/svg" xmlns:xlink="http://www.w3.org/1999/xlink" viewBox="0 0 48 48"><path fill="#15407c" d="M34,42H14c-4.411,0-8-3.589-8-8V14c0-4.411,3.589-8,8-8h20c4.411,0,8,3.589,8,8v20 C42,38.411,38.411,42,34,42z"/><radialGradient id="rH5S0PHLNw_OwpwiiglKba" cx="32.217" cy="26.315" r="18.488" gradientUnits="userSpaceOnUse"><stop offset=".074" stop-color="#2080f3"/><stop offset="1" stop-color="#53d390" stop-opacity="0"/></radialGradient><path fill="url(#rH5S0PHLNw_OwpwiiglKba)" d="M21.216,36.076l-7.05-5.237c-1.555-1.155-1.555-3.521,0-4.677l7.05-5.237 c1.659-1.233,3.909-1.233,5.568,0l7.05,5.237c1.555,1.155,1.555,3.521,0,4.677l-7.05,5.237 C25.125,37.308,22.875,37.308,21.216,36.076z"/><radialGradient id="rH5S0PHLNw_OwpwiiglKbb" cx="21.652" cy="36" r="13.714" gradientTransform="matrix(.4789 -.8779 1.6064 .8762 -46.546 23.465)" gradientUnits="userSpaceOnUse"><stop offset=".074" stop-color="#50ce96" stop-opacity=".941"/><stop offset="1" stop-color="#2080f2" stop-opacity="0"/></radialGradient><path fill="url(#rH5S0PHLNw_OwpwiiglKbb)" d="M21.216,36.076l-7.05-5.237c-1.555-1.155-1.555-3.521,0-4.677l7.05-5.237 c1.659-1.233,3.909-1.233,5.568,0l7.05,5.237c1.555,1.155,1.555,3.521,0,4.677l-7.05,5.237 C25.125,37.308,22.875,37.308,21.216,36.076z"/><radialGradient id="rH5S0PHLNw_OwpwiiglKbc" cx="10.043" cy="20.348" r="25.25" gradientUnits="userSpaceOnUse"><stop offset=".393" stop-color="#ef5d57"/><stop offset="1" stop-color="#e36001" stop-opacity="0"/></radialGradient><path fill="url(#rH5S0PHLNw_OwpwiiglKbc)" d="M21.216,27.076l-7.05-5.237c-1.555-1.155-1.555-3.521,0-4.677l7.05-5.237 c1.659-1.233,3.909-1.233,5.568,0l7.05,5.237c1.555,1.155,1.555,3.521,0,4.677l-7.05,5.237 C25.125,28.308,22.875,28.308,21.216,27.076z"/><radialGradient id="rH5S0PHLNw_OwpwiiglKbd" cx="24.489" cy="11.641" r="21.038" gradientTransform="matrix(-.0232 .9997 -.8673 -.0202 35.155 -12.606)" gradientUnits="userSpaceOnUse"><stop offset=".064" stop-color="#eb6ad0"/><stop offset=".158" stop-color="#eb69c5" stop-opacity=".899"/><stop offset=".324" stop-color="#e968a8" stop-opacity=".722"/><stop offset=".54" stop-color="#e86679" stop-opacity=".491"/><stop offset=".797" stop-color="#e56339" stop-opacity=".217"/><stop offset="1" stop-color="#e36001" stop-opacity="0"/></radialGradient><path fill="url(#rH5S0PHLNw_OwpwiiglKbd)" d="M21.216,27.076l-7.05-5.237c-1.555-1.155-1.555-3.521,0-4.677l7.05-5.237 c1.659-1.233,3.909-1.233,5.568,0l7.05,5.237c1.555,1.155,1.555,3.521,0,4.677l-7.05,5.237 C25.125,28.308,22.875,28.308,21.216,27.076z"/></svg>