<svg xmlns="http://www.w3.org/2000/svg" xmlns:xlink="http://www.w3.org/1999/xlink" viewBox="0 0 48 48"><linearGradient id="i9gMV8RPRiXBVRoCh9BlCa" x1="24" x2="24" y1="16.026" y2="18.015" gradientUnits="userSpaceOnUse"><stop offset="0" stop-color="#912fbd"/><stop offset="1" stop-color="#9332bf"/></linearGradient><path fill="url(#i9gMV8RPRiXBVRoCh9BlCa)" d="M41,18H7c-0.552,0-1-0.448-1-1v0c0-0.552,0.448-1,1-1h34c0.552,0,1,0.448,1,1v0C42,17.552,41.552,18,41,18z"/><linearGradient id="i9gMV8RPRiXBVRoCh9BlCb" x1="24" x2="24" y1="42.885" y2="10.323" gradientUnits="userSpaceOnUse"><stop offset="0" stop-color="#912fbd"/><stop offset="1" stop-color="#9332bf"/></linearGradient><path fill="url(#i9gMV8RPRiXBVRoCh9BlCb)" d="M39,11v30c0,1.105-0.895,2-2,2H11c-1.105,0-2-0.895-2-2V11H39z"/><linearGradient id="i9gMV8RPRiXBVRoCh9BlCc" x1="24" x2="24" y1="7.171" y2="14.301" gradientUnits="userSpaceOnUse"><stop offset="0" stop-color="#c965eb"/><stop offset="1" stop-color="#c767e5"/></linearGradient><path fill="url(#i9gMV8RPRiXBVRoCh9BlCc)" d="M8,11v-1c0-1.657,1.343-3,3-3h26c1.657,0,3,1.343,3,3v1H8z"/><linearGradient id="i9gMV8RPRiXBVRoCh9BlCd" x1="24" x2="24" y1="4.04" y2="7.022" gradientUnits="userSpaceOnUse"><stop offset="0" stop-color="#ae4cd5"/><stop offset="1" stop-color="#ac4ad5"/></linearGradient><path fill="url(#i9gMV8RPRiXBVRoCh9BlCd)" d="M28,4h-8c-1.105,0-2,0.895-2,2v1h12V6C30,4.895,29.105,4,28,4z"/><linearGradient id="i9gMV8RPRiXBVRoCh9BlCe" x1="15" x2="33" y1="27" y2="27" gradientUnits="userSpaceOnUse"><stop offset="0" stop-color="#ae4cd5"/><stop offset="1" stop-color="#ac4ad5"/></linearGradient><rect width="18" height="32" x="15" y="11" fill="url(#i9gMV8RPRiXBVRoCh9BlCe)"/></svg>