<svg xmlns="http://www.w3.org/2000/svg" xmlns:xlink="http://www.w3.org/1999/xlink" viewBox="0 0 32 32" fill="#FFFFFF">
  <path d="M26.999,11.88c0-5.206-3.353-6.733-3.353-6.733c-3.291-1.537-12.167-1.439-15.288,0c0,0-3.358,1.527-3.358,6.733 c0,6.197-0.004,13.98,5.563,15.485c2.132,0.573,3.964,0.696,5.438,0.611C18.676,27.825,20,27.006,20,27.006l-0.089-1.976 c0,0-1.735,0.611-3.882,0.541c-2.127-0.075-4.368-0.236-4.717-2.892c-0.032-0.247-0.048-0.496-0.047-0.745 c4.507,1.119,8.35,0.487,9.408,0.359c2.954-0.359,5.526-2.212,5.854-3.905C27.041,15.72,26.999,11.88,26.999,11.88L26.999,11.88z M23.025,18.001h-2.447v-5.628c0-2.635-3.359-2.736-3.359,0.366V16h-2.431v-3.262c0-3.102-3.359-3.001-3.359-0.366V18H8.977 c0-6.474-0.273-7.415,0.966-8.852c1.359-1.532,4.189-1.633,5.449,0.323l0.609,1.034l0.609-1.034c1.265-1.967,4.1-1.845,5.449-0.323 c1.244,1.448,0.966,2.383,0.966,8.852L23.025,18.001z" fill="#FFFFFF" />
</svg>