<svg xmlns="http://www.w3.org/2000/svg" xmlns:xlink="http://www.w3.org/1999/xlink" viewBox="0 0 80 80"><path fill="#bae0bd" d="M31.1 73.3L20.8 73.3 15.6 64.4 6.7 59.2 6.7 48.9 1.6 40 6.7 31.1 6.7 20.8 15.6 15.6 20.8 6.7 31.1 6.7 40 1.6 48.9 6.7 59.2 6.7 64.4 15.6 73.3 20.8 73.3 31.1 78.4 40 73.3 48.9 73.3 59.2 64.4 64.4 59.2 73.3 48.9 73.3 40 78.4z"/><path fill="#5e9c76" d="M40,2.2l8.5,4.9l0.2,0.1H49h9.9l4.9,8.6L64,16l0.2,0.1l8.6,4.9V31v0.3l0.1,0.2l4.9,8.5l-4.9,8.5 l-0.1,0.2V49v9.9l-8.6,4.9L64,64l-0.1,0.2l-4.9,8.6H49h-0.3l-0.2,0.1L40,77.8l-8.5-4.9l-0.2-0.1H31h-9.9l-4.9-8.6L16,64l-0.2-0.1 l-8.6-4.9V49v-0.3l-0.1-0.2L2.2,40l4.9-8.5l0.1-0.2V31v-9.9l8.6-4.9L16,16l0.1-0.2l4.9-8.6H31h0.3l0.2-0.1L40,2.2 M40,1l-9,5.2 H20.5l-5.2,9l-9,5.2V31L1,40l5.2,9v10.5l9,5.2l5.2,9.1H31l9,5.2l9-5.2h10.5l5.2-9.1l9.1-5.2V49l5.2-9l-5.2-9V20.5l-9.1-5.2l-5.2-9 H49L40,1L40,1z"/><path fill="#fff" d="M34 56L20.2 42.2 24.5 38 34 47.6 58.2 23.4 62.5 27.6z"/></svg>