<svg xmlns="http://www.w3.org/2000/svg" xmlns:xlink="http://www.w3.org/1999/xlink" viewBox="0 0 80 80"><path fill="#c2e8ff" d="M23.806,75.5c-2.646,0-4.911-1.978-5.27-4.6l-7.963-58.4h58.854l-7.963,58.4 c-0.358,2.622-2.624,4.6-5.27,4.6H23.806z"/><path fill="#7496c4" d="M68.854,13l-7.886,57.833C60.644,73.208,58.592,75,56.194,75H23.806 c-2.398,0-4.45-1.792-4.774-4.167L11.146,13H68.854 M70,12H10l8.041,58.968C18.434,73.851,20.896,76,23.806,76h32.388 c2.909,0,5.372-2.149,5.765-5.032L70,12L70,12z"/><path fill="#fff" d="M24 20L22 20 28 68 30 68z"/></svg>