<svg xmlns="http://www.w3.org/2000/svg" xmlns:xlink="http://www.w3.org/1999/xlink" viewBox="0 0 80 80"><path fill="#ffeea3" d="M2.5 10.5H69.5V61.5H2.5z"/><path fill="#ba9b48" d="M69,11v50H3V11H69 M70,10H2v52h68V10L70,10z"/><path fill="#ffeea3" d="M10.5 18.5H77.5V69.5H10.5z"/><path fill="#ba9b48" d="M77,19v50H11V19H77 M78,18H10v52h68V18L78,18z"/><g><path fill="#ffeea3" d="M10.6,29.1l28.8,17.1c2.9,1.7,6.3,1.7,9.2,0l28.9-17.1"/><path fill="#ba9b48" d="M44,48c-1.7,0-3.3-0.5-4.9-1.4L10.3,29.6l0.5-0.9l28.8,17.1c2.7,1.6,6,1.6,8.7,0l28.9-17.1l0.5,0.9 L48.9,46.7C47.3,47.6,45.7,48,44,48z"/></g></svg>