<svg xmlns="http://www.w3.org/2000/svg" xmlns:xlink="http://www.w3.org/1999/xlink" data-name="Слой 1" viewBox="0 0 80 80"><path fill="#b0c1d4" d="M32.5 55.5H47.5V68.5H32.5z"/><path fill="#66798f" d="M47,56V68H33V56H47m1-1H32V69H48V55Z"/><path fill="#c2e8ff" d="M2.5 7.5H77.5V60.5H2.5z"/><path fill="#66798f" d="M77,8V60H3V8H77m1-1H2V61H78V7Z"/><path fill="#66798f" d="M3 53H77V60H3z"/><path fill="#b0c1d4" d="M18.52,72.5a5.51,5.51,0,0,1,5.48-5H56a5.51,5.51,0,0,1,5.48,5Z"/><path fill="#66798f" d="M56,68a5,5,0,0,1,4.9,4H19.1A5,5,0,0,1,24,68H56m0-1H24a6,6,0,0,0-6,6H62a6,6,0,0,0-6-6Z"/><path fill="#ffeea3" d="M68 56H74V58H68z"/></svg>