<svg xmlns="http://www.w3.org/2000/svg" xmlns:xlink="http://www.w3.org/1999/xlink" x="0" y="0" viewBox="0 0 128 128"><path fill="#fff" d="M39.3,32.1C24.1,47.2,22.1,70.5,33,87.8l-22,22L25.1,124l22-22c17.4,11,40.6,8.9,55.8-6.3 c17.6-17.6,17.6-46.1,0-63.6"/><path fill="#fcca3d" d="M102.9,32.1c-17.6-17.6-46.1-17.6-63.6,0c-8.2,8.2-12.5,18.7-13.1,29.3l47.4,47.4c10.7-0.6,21.2-5,29.3-13.1 C120.5,78.1,120.5,49.6,102.9,32.1z"/><path fill="#ff6144" d="M75.9,105.6c-1.5,0-2.8-1.1-3-2.6c-0.2-1.6,1-3.1,2.6-3.3c7.9-1,15.4-4.6,21.1-10.3c8.9-8.9,12.5-21.7,9.5-34 c-0.4-1.6,0.6-3.2,2.2-3.6c1.6-0.4,3.2,0.6,3.6,2.2c3.5,14.4,2.3,29.2-8.1,39.7c-6.6,6.6-18.3,10.9-27.6,12 C76.1,105.6,76,105.6,75.9,105.6z"/><path fill="#444b54" d="M25.1,127c-0.8,0-1.6-0.3-2.1-0.9L8.9,112c-0.6-0.6-0.9-1.3-0.9-2.1s0.3-1.6,0.9-2.1l20.4-20.4 c-10.6-18.7-7.5-42,7.9-57.4c1.2-1.2,3.1-1.2,4.2,0c1.2,1.2,1.2,3.1,0,4.2c-14,14-16.4,35.4-5.9,52.1c0.7,1.2,0.6,2.7-0.4,3.7 l-19.9,19.9l9.9,9.9L45,99.9c1-1,2.5-1.2,3.7-0.4c16.7,10.5,38.1,8.1,52.1-5.9c7.9-7.9,12.3-18.5,12.3-29.7 c0-11.2-4.4-21.8-12.3-29.7c-1.2-1.2-1.2-3.1,0-4.2c1.2-1.2,3.1-1.2,4.2,0c18.7,18.7,18.7,49.2,0,67.9 c-15.4,15.4-38.7,18.5-57.4,7.9l-20.4,20.4C26.7,126.7,25.9,127,25.1,127z"/><path fill="#fff" d="M71 4A17 17 0 1 0 71 38A17 17 0 1 0 71 4Z"/><path fill="#444b54" d="M71,41c-11,0-20-9-20-20S60,1,71,1s20,9,20,20S82,41,71,41z M71,7c-7.7,0-14,6.3-14,14s6.3,14,14,14 s14-6.3,14-14S78.7,7,71,7z"/></svg>