<svg xmlns="http://www.w3.org/2000/svg" xmlns:xlink="http://www.w3.org/1999/xlink" viewBox="0 0 48 48"><path fill="#ff9800" d="M42,37c0,2.8-2.2,5-5,5H11c-2.8,0-5-2.2-5-5V11c0-2.8,2.2-5,5-5h26c2.8,0,5,2.2,5,5V37z"/><path fill="#fff" d="M18,33.5c0-1.9-1.6-3.5-3.5-3.5S11,31.6,11,33.5c0,1.9,1.6,3.5,3.5,3.5S18,35.4,18,33.5z"/><path fill="#fff" d="M27,37h-4v-1c0-6.3-4.7-11-11-11h-1v-4h1c8.6,0,15,6.4,15,15V37z"/><path fill="#fff" d="M37,37h-4v-1c0-11.6-9.4-21-21-21h-1v-4h1c13.8,0,25,11.2,25,25V37z"/></svg>