<svg xmlns="http://www.w3.org/2000/svg" xmlns:xlink="http://www.w3.org/1999/xlink" viewBox="0 0 48 48"><linearGradient id="V3fOa_dp0mSgLjRyN_lSta" x1="6.468" x2="37.801" y1="6.468" y2="37.801" gradientUnits="userSpaceOnUse"><stop offset="0" stop-color="#ffda1c"/><stop offset="1" stop-color="#feb705"/></linearGradient><path fill="url(#V3fOa_dp0mSgLjRyN_lSta)" d="M36,6H12c-3.314,0-6,2.686-6,6v24c0,3.314,2.686,6,6,6h24c3.314,0,6-2.686,6-6V12C42,8.686,39.314,6,36,6z"/><circle cx="14.5" cy="33.5" r="4.5" opacity=".05"/><circle cx="14.5" cy="33.5" r="4" opacity=".07"/><path fill="#fff" d="M18,33.5c0-1.9-1.6-3.5-3.5-3.5S11,31.6,11,33.5c0,1.9,1.6,3.5,3.5,3.5S18,35.4,18,33.5z"/><path d="M24,38c-1.103,0-2-0.897-2-2c0-5.514-4.486-10-10-10c-1.103,0-2-0.897-2-2v-2c0-1.103,0.897-2,2-2c8.822,0,16,7.178,16,16c0,1.103-0.897,2-2,2H24z" opacity=".05"/><path d="M24,37.5c-0.827,0-1.5-0.673-1.5-1.5c0-5.79-4.71-10.5-10.5-10.5c-0.827,0-1.5-0.673-1.5-1.5v-2c0-0.827,0.673-1.5,1.5-1.5c8.547,0,15.5,6.953,15.5,15.5c0,0.827-0.673,1.5-1.5,1.5H24z" opacity=".07"/><path fill="#fff" d="M26,37h-2c-0.552,0-1-0.448-1-1v0c0-6.075-4.925-11-11-11h0c-0.552,0-1-0.448-1-1v-2c0-0.552,0.448-1,1-1h0c8.284,0,15,6.716,15,15v0C27,36.552,26.552,37,26,37z"/><path d="M34,38c-1.103,0-2-0.897-2-2c0-11.028-8.972-20-20-20c-1.103,0-2-0.897-2-2v-2c0-1.103,0.897-2,2-2c14.337,0,26,11.664,26,26c0,1.103-0.897,2-2,2H34z" opacity=".05"/><path d="M34,37.5c-0.827,0-1.5-0.673-1.5-1.5c0-11.304-9.196-20.5-20.5-20.5c-0.827,0-1.5-0.673-1.5-1.5v-2c0-0.827,0.673-1.5,1.5-1.5c14.061,0,25.5,11.439,25.5,25.5c0,0.827-0.673,1.5-1.5,1.5H34z" opacity=".07"/><path fill="#fff" d="M36,37h-2c-0.552,0-1-0.448-1-1v0c0-11.598-9.402-21-21-21h0c-0.552,0-1-0.448-1-1v-2c0-0.552,0.448-1,1-1h0c13.807,0,25,11.193,25,25v0C37,36.552,36.552,37,36,37z"/></svg>