<svg xmlns="http://www.w3.org/2000/svg" xmlns:xlink="http://www.w3.org/1999/xlink" viewBox="0 0 80 80"><path fill="#ffc49c" d="M10,73.5c-1.9,0-3.5-1.6-3.5-3.5V10c0-1.9,1.6-3.5,3.5-3.5h60c1.9,0,3.5,1.6,3.5,3.5v60 c0,1.9-1.6,3.5-3.5,3.5H10z"/><path fill="#b08159" d="M70,7c1.7,0,3,1.3,3,3v60c0,1.7-1.3,3-3,3H10c-1.7,0-3-1.3-3-3V10c0-1.7,1.3-3,3-3H70 M70,6H10 c-2.2,0-4,1.8-4,4v60c0,2.2,1.8,4,4,4h60c2.2,0,4-1.8,4-4V10C74,7.8,72.2,6,70,6L70,6z"/><path fill="#fff" d="M21 52A7 7 0 1 0 21 66 7 7 0 1 0 21 52zM48 66h-8c0-14.3-11.7-26-26-26v-8C32.7 32 48 47.3 48 66z"/><path fill="#fff" d="M66,66h-8c0-24.3-19.7-44-44-44v-8C42.7,14,66,37.3,66,66z"/></svg>