<svg xmlns="http://www.w3.org/2000/svg" xmlns:xlink="http://www.w3.org/1999/xlink" viewBox="0 0 48 48"><path fill="#673AB7" d="M45,35c0,2.2-1.8,4-4,4H7c-2.2,0-4-1.8-4-4V13c0-2.2,1.8-4,4-4h34c2.2,0,4,1.8,4,4V35z"/><path fill="#FFAB00" d="M22,24.7c0,0.7-0.5,1.3-1.1,1.3h-5.7c-0.6,0-1.1-0.6-1.1-1.3v-5.3c0-0.7,0.5-1.3,1.1-1.3h5.7c0.6,0,1.1,0.6,1.1,1.3V24.7z"/><path fill="#E3F2FD" d="M39,14H27c-0.6,0-1,0.4-1,1v14c0,0.6,0.4,1,1,1h12c0.6,0,1-0.4,1-1V15C40,14.4,39.6,14,39,14z"/><path fill="#FF9800" d="M33,27.9c-1.7,0-1.8-2.5-1.8-2.5v-2.1h3.5v2.1C34.8,25.5,34.7,27.9,33,27.9z"/><path fill="#FFA726" d="M36.2 20.6A.7.7 0 1 0 36.2 22 .7.7 0 1 0 36.2 20.6zM29.9 20.6A.7.7 0 1 0 29.9 22 .7.7 0 1 0 29.9 20.6z"/><path fill="#FFB74D" d="M36.2,19.1c0-2.7-6.3-1.7-6.3,0c0,0.4,0,2.1,0,2.5c0,1.7,1.4,3.1,3.1,3.1s3.2-1.4,3.2-3.1C36.2,21.2,36.2,19.5,36.2,19.1z"/><path fill="#424242" d="M33,16c-2.1,0-3.5,1.7-3.5,3.9c0,0.3,0,0.8,0,0.8l0.7,0.6v-1.8l4.2-1.4l1.4,1.4v1.8l0.7-0.6c0,0,0-0.5,0-0.8c0-1.4-0.4-2.8-2.1-3.1L34,16H33z"/><path fill="#784719" d="M34.4 21A.3.3 0 1 0 34.4 21.6.3.3 0 1 0 34.4 21zM31.6 21A.3.3 0 1 0 31.6 21.6.3.3 0 1 0 31.6 21z"/><path fill="#009688" d="M34.8,25.5L34.8,25.5c0,0-0.6,0.7-1.8,0.7s-1.8-0.7-1.8-0.7s-3.9,0.7-3.9,4.5h11.2C38.6,26.2,34.8,25.5,34.8,25.5z"/><path fill="#D1C4E9" d="M11 19L11 25 8 22z"/><path fill="#B39DDB" d="M26 32H40V34H26z"/><path fill="#FFD54F" d="M16 18L16 20 14 20 14 22 16 22 16 26 18 26 18 18z"/></svg>