<svg xmlns="http://www.w3.org/2000/svg" xmlns:xlink="http://www.w3.org/1999/xlink" viewBox="0 0 30 30"><path fill="#a8deff" d="M8.5,28.5c-1.103,0-2-0.897-2-2v-23c0-1.103,0.897-2,2-2h13c1.103,0,2,0.897,2,2v23 c0,1.103-0.897,2-2,2H8.5z"/><path fill="#66798f" d="M21.5,2C22.327,2,23,2.673,23,3.5v23c0,0.827-0.673,1.5-1.5,1.5h-13C7.673,28,7,27.327,7,26.5v-23 C7,2.673,7.673,2,8.5,2H21.5 M21.5,1h-13C7.119,1,6,2.119,6,3.5v23C6,27.881,7.119,29,8.5,29h13c1.381,0,2.5-1.119,2.5-2.5v-23 C24,2.119,22.881,1,21.5,1L21.5,1z"/><path fill="#4da7db" d="M15.242,10.455c0.295-0.355,0.768-0.591,1.182-0.65c0.059,0.473-0.118,0.945-0.355,1.241 c-0.295,0.355-0.709,0.591-1.182,0.591C14.769,11.223,14.946,10.809,15.242,10.455z M17.783,16.423 c-0.355,0.473-0.827,1.123-1.359,1.123s-0.65-0.355-1.3-0.295c-0.709,0-0.827,0.355-1.359,0.295c-0.591,0-1.005-0.532-1.3-1.064 c-0.886-1.359-1.005-3.014-0.414-3.9c0.414-0.591,1.005-0.945,1.595-0.945s1.005,0.355,1.477,0.355c0.473,0,0.768-0.355,1.477-0.355 c0.532,0,1.064,0.295,1.477,0.768c-1.3,0.709-1.064,2.541,0.236,3.073C18.078,15.891,17.96,16.068,17.783,16.423z"/><path fill="#66798f" d="M18.25,1h-6.5C11.336,1,11,1.336,11,1.75v0.5C11,2.664,11.336,3,11.75,3h6.5 C18.664,3,19,2.664,19,2.25v-0.5C19,1.336,18.664,1,18.25,1z"/></svg>