<svg xmlns="http://www.w3.org/2000/svg" xmlns:xlink="http://www.w3.org/1999/xlink" viewBox="0 0 40 40"><path fill="#b6dcfe" d="M22.159,37.5c1.415-0.996,2.341-2.642,2.341-4.5V5.5h13V33c0,2.481-2.019,4.5-4.5,4.5H22.159z"/><path fill="#4788c7" d="M37,6v27c0,2.206-1.794,4-4,4h-9.532C24.42,35.938,25,34.535,25,33V6H37 M38,5H24v28 c0,2.761-2.239,5-5,5h14c2.761,0,5-2.239,5-5V5L38,5z"/><path fill="#dff0fe" d="M7,37.5c-2.481,0-4.5-2.019-4.5-4.5V1.5h26V33c0,2.313,1.753,4.223,4,4.472V37.5H7z"/><path fill="#4788c7" d="M28,2v31c0,1.634,0.788,3.087,2.003,4H7c-2.206,0-4-1.794-4-4V2H28 M29,1H2v32c0,2.761,2.239,5,5,5 h26v-1c-2.209,0-4-1.791-4-4V1L29,1z"/><path fill="#4788c7" d="M33.5 11h-5c-.275 0-.5-.225-.5-.5v0c0-.275.225-.5.5-.5h5c.275 0 .5.225.5.5v0C34 10.775 33.775 11 33.5 11zM33.5 14h-5c-.275 0-.5-.225-.5-.5v0c0-.275.225-.5.5-.5h5c.275 0 .5.225.5.5v0C34 13.775 33.775 14 33.5 14zM33.5 17h-5c-.275 0-.5-.225-.5-.5l0 0c0-.275.225-.5.5-.5h5c.275 0 .5.225.5.5l0 0C34 16.775 33.775 17 33.5 17zM33.5 20h-5c-.275 0-.5-.225-.5-.5l0 0c0-.275.225-.5.5-.5h5c.275 0 .5.225.5.5l0 0C34 19.775 33.775 20 33.5 20zM33.5 23h-5c-.275 0-.5-.225-.5-.5l0 0c0-.275.225-.5.5-.5h5c.275 0 .5.225.5.5l0 0C34 22.775 33.775 23 33.5 23zM33.5 26h-5c-.275 0-.5-.225-.5-.5l0 0c0-.275.225-.5.5-.5h5c.275 0 .5.225.5.5l0 0C34 25.775 33.775 26 33.5 26zM33.5 29h-5c-.275 0-.5-.225-.5-.5l0 0c0-.275.225-.5.5-.5h5c.275 0 .5.225.5.5l0 0C34 28.775 33.775 29 33.5 29zM33.5 32h-5c-.275 0-.5-.225-.5-.5l0 0c0-.275.225-.5.5-.5h5c.275 0 .5.225.5.5l0 0C34 31.775 33.775 32 33.5 32z"/><g><path fill="#4788c7" d="M23.5 12h-6c-.275 0-.5-.225-.5-.5v0c0-.275.225-.5.5-.5h6c.275 0 .5.225.5.5v0C24 11.775 23.775 12 23.5 12zM23.5 15h-6c-.275 0-.5-.225-.5-.5v0c0-.275.225-.5.5-.5h6c.275 0 .5.225.5.5v0C24 14.775 23.775 15 23.5 15zM23.5 18h-6c-.275 0-.5-.225-.5-.5l0 0c0-.275.225-.5.5-.5h6c.275 0 .5.225.5.5l0 0C24 17.775 23.775 18 23.5 18zM23.5 21h-6c-.275 0-.5-.225-.5-.5l0 0c0-.275.225-.5.5-.5h6c.275 0 .5.225.5.5l0 0C24 20.775 23.775 21 23.5 21zM23.5 24h-6c-.275 0-.5-.225-.5-.5l0 0c0-.275.225-.5.5-.5h6c.275 0 .5.225.5.5l0 0C24 23.775 23.775 24 23.5 24zM23.5 27h-6c-.275 0-.5-.225-.5-.5l0 0c0-.275.225-.5.5-.5h6c.275 0 .5.225.5.5l0 0C24 26.775 23.775 27 23.5 27zM23.5 30h-6c-.275 0-.5-.225-.5-.5l0 0c0-.275.225-.5.5-.5h6c.275 0 .5.225.5.5l0 0C24 29.775 23.775 30 23.5 30zM23.5 33h-6c-.275 0-.5-.225-.5-.5l0 0c0-.275.225-.5.5-.5h6c.275 0 .5.225.5.5l0 0C24 32.775 23.775 33 23.5 33z"/></g><g><path fill="#4788c7" d="M13.5 12h-6C7.225 12 7 11.775 7 11.5v0C7 11.225 7.225 11 7.5 11h6c.275 0 .5.225.5.5v0C14 11.775 13.775 12 13.5 12zM13.5 15h-6C7.225 15 7 14.775 7 14.5v0C7 14.225 7.225 14 7.5 14h6c.275 0 .5.225.5.5v0C14 14.775 13.775 15 13.5 15zM13.5 18h-6C7.225 18 7 17.775 7 17.5l0 0C7 17.225 7.225 17 7.5 17h6c.275 0 .5.225.5.5l0 0C14 17.775 13.775 18 13.5 18zM13.5 21h-6C7.225 21 7 20.775 7 20.5l0 0C7 20.225 7.225 20 7.5 20h6c.275 0 .5.225.5.5l0 0C14 20.775 13.775 21 13.5 21zM13.5 24h-6C7.225 24 7 23.775 7 23.5l0 0C7 23.225 7.225 23 7.5 23h6c.275 0 .5.225.5.5l0 0C14 23.775 13.775 24 13.5 24zM13.5 27h-6C7.225 27 7 26.775 7 26.5l0 0C7 26.225 7.225 26 7.5 26h6c.275 0 .5.225.5.5l0 0C14 26.775 13.775 27 13.5 27zM13.5 30h-6C7.225 30 7 29.775 7 29.5l0 0C7 29.225 7.225 29 7.5 29h6c.275 0 .5.225.5.5l0 0C14 29.775 13.775 30 13.5 30zM13.5 33h-6C7.225 33 7 32.775 7 32.5l0 0C7 32.225 7.225 32 7.5 32h6c.275 0 .5.225.5.5l0 0C14 32.775 13.775 33 13.5 33z"/></g><path fill="#4788c7" d="M23,8H8C7.45,8,7,7.55,7,7v0c0-0.55,0.45-1,1-1h15c0.55,0,1,0.45,1,1v0C24,7.55,23.55,8,23,8z"/></svg>