<svg xmlns="http://www.w3.org/2000/svg" xmlns:xlink="http://www.w3.org/1999/xlink" viewBox="0 0 40 40"><path fill="#4788c7" d="M24.279,3l0.667,2h-9.892l0.667-2H24.279 M24.279,2h-8.558c-0.43,0-0.813,0.275-0.949,0.684L14,5v1 h12V5l-0.772-2.316C25.092,2.275,24.71,2,24.279,2L24.279,2z"/><path fill="#dff0fe" d="M8,37.5c-0.827,0-1.5-0.673-1.5-1.5V8.5h27V36c0,0.827-0.673,1.5-1.5,1.5H8z"/><path fill="#4788c7" d="M33,9v27c0,0.551-0.449,1-1,1H8c-0.551,0-1-0.449-1-1V9H33 M34,8H6v28c0,1.105,0.895,2,2,2h24 c1.105,0,2-0.895,2-2V8L34,8z"/><path fill="#dff0fe" d="M4.5,8.5V7c0-0.827,0.673-1.5,1.5-1.5h28c0.827,0,1.5,0.673,1.5,1.5v1.5H4.5z"/><path fill="#4788c7" d="M34 6c.551 0 1 .449 1 1v1H5V7c0-.551.449-1 1-1H34M34 5H6C4.895 5 4 5.895 4 7v2h32V7C36 5.895 35.105 5 34 5L34 5zM24.5 35L24.5 35c-.276 0-.5-.224-.5-.5v-23c0-.276.224-.5.5-.5h0c.276 0 .5.224.5.5v23C25 34.776 24.776 35 24.5 35zM15.5 35L15.5 35c-.276 0-.5-.224-.5-.5v-23c0-.276.224-.5.5-.5h0c.276 0 .5.224.5.5v23C16 34.776 15.776 35 15.5 35zM10.5 35L10.5 35c-.276 0-.5-.224-.5-.5v-23c0-.276.224-.5.5-.5h0c.276 0 .5.224.5.5v23C11 34.776 10.776 35 10.5 35zM29.5 35L29.5 35c-.276 0-.5-.224-.5-.5v-23c0-.276.224-.5.5-.5h0c.276 0 .5.224.5.5v23C30 34.776 29.776 35 29.5 35z"/></svg>