<svg xmlns="http://www.w3.org/2000/svg" xmlns:xlink="http://www.w3.org/1999/xlink" viewBox="0 0 80 80"><path fill="#8bb7f0" d="M2.5,71.5v-63h75v63H2.5z M68.5,68.5h6v-6h-6V68.5z M59.5,68.5h6v-6h-6V68.5z M50.5,68.5h6v-6h-6 V68.5z M41.5,68.5h6v-6h-6V68.5z M32.5,68.5h6v-6h-6V68.5z M23.5,68.5h6v-6h-6V68.5z M14.5,68.5h6v-6h-6V68.5z M5.5,68.5h6v-6h-6 V68.5z M68.5,17.5h6v-6h-6V17.5z M59.5,17.5h6v-6h-6V17.5z M50.5,17.5h6v-6h-6V17.5z M41.5,17.5h6v-6h-6V17.5z M32.5,17.5h6v-6h-6 V17.5z M23.5,17.5h6v-6h-6V17.5z M14.5,17.5h6v-6h-6V17.5z M5.5,17.5h6v-6h-6V17.5z"/><path fill="#4e7ab5" d="M77,9v62H3V9H77 M68,18h1h5h1v-1v-5v-1h-1h-5h-1v1v5V18 M59,18h1h5h1v-1v-5v-1h-1h-5h-1v1v5V18 M50,18h1h5h1v-1v-5v-1h-1h-5h-1v1v5V18 M41,18h1h5h1v-1v-5v-1h-1h-5h-1v1v5V18 M32,18h1h5h1v-1v-5v-1h-1h-5h-1v1v5V18 M23,18h1h5 h1v-1v-5v-1h-1h-5h-1v1v5V18 M14,18h1h5h1v-1v-5v-1h-1h-5h-1v1v5V18 M5,18h1h5h1v-1v-5v-1h-1H6H5v1v5V18 M68,69h1h5h1v-1v-5v-1h-1 h-5h-1v1v5V69 M59,69h1h5h1v-1v-5v-1h-1h-5h-1v1v5V69 M50,69h1h5h1v-1v-5v-1h-1h-5h-1v1v5V69 M41,69h1h5h1v-1v-5v-1h-1h-5h-1v1v5 V69 M32,69h1h5h1v-1v-5v-1h-1h-5h-1v1v5V69 M23,69h1h5h1v-1v-5v-1h-1h-5h-1v1v5V69 M14,69h1h5h1v-1v-5v-1h-1h-5h-1v1v5V69 M5,69h1 h5h1v-1v-5v-1h-1H6H5v1v5V69 M78,8H2v64h76V8L78,8z M69,17v-5h5v5H69L69,17z M60,17v-5h5v5H60L60,17z M51,17v-5h5v5H51L51,17z M42,17v-5h5v5H42L42,17z M33,17v-5h5v5H33L33,17z M24,17v-5h5v5H24L24,17z M15,17v-5h5v5H15L15,17z M6,17v-5h5v5H6L6,17z M69,68 v-5h5v5H69L69,68z M60,68v-5h5v5H60L60,68z M51,68v-5h5v5H51L51,68z M42,68v-5h5v5H42L42,68z M33,68v-5h5v5H33L33,68z M24,68v-5h5 v5H24L24,68z M15,68v-5h5v5H15L15,68z M6,68v-5h5v5H6L6,68z"/><path fill="#7496c4" d="M59,62h3L32,32v30h7v7h-7v2h16h2h12v-2h-3V62z M41,69v-7h7v7H41z M50,62h7v7h-7V62z"/><path fill="#f5ce85" d="M37.678 47.681L32.784 32.785 47.632 37.683 53.098 43.148 43.81 53.813z"/><path fill="#967a44" d="M33.568,33.57l13.794,4.549l5.052,5.052l-8.63,9.909l-5.669-5.669L33.568,33.57 M32,32l5.24,15.95 l6.595,6.595l9.947-11.421l-5.88-5.88L32,32L32,32z"/><path fill="#967a44" d="M35.173 41.659L41 34.968 32 32z"/><path fill="#f78f8f" d="M71.445,78.5c-1.884,0-3.656-0.734-4.988-2.066l-4.746-4.745l9.977-9.977l4.746,4.745 c2.75,2.751,2.751,7.227,0,9.977C75.101,77.766,73.33,78.5,71.445,78.5z"/><path fill="#c74343" d="M71.688,62.419l4.392,4.392c1.238,1.238,1.92,2.884,1.92,4.635s-0.682,3.397-1.92,4.635 C74.842,77.318,73.196,78,71.446,78c-1.751,0-3.397-0.682-4.635-1.92l-4.392-4.392L71.688,62.419 M71.688,61.005L61.005,71.688 l5.099,5.099C67.579,78.262,69.512,79,71.446,79s3.867-0.738,5.342-2.213h0c2.95-2.95,2.95-7.733,0-10.684L71.688,61.005 L71.688,61.005z"/><g><path fill="#ffeea3" d="M38.397,48.4c1.024-0.202,2.495-0.916,2.666-3.337c2.698-0.234,3.689-2.429,3.893-3.921 c0.987-0.082,1.787-0.435,2.383-1.053c0.533-0.552,0.8-1.218,0.933-1.769l21.093,21.067l-9.977,9.977L38.397,48.4z"/><path fill="#ba9b48" d="M48.49,39.246l20.168,20.143l-9.269,9.269L39.339,48.634c1.065-0.466,1.944-1.441,2.179-3.122 c2.489-0.398,3.547-2.372,3.867-3.917c0.936-0.146,1.712-0.534,2.314-1.158C48.059,40.064,48.312,39.649,48.49,39.246 M47.902,37.245c0,0,0.123,3.417-3.406,3.417c0,0-0.122,3.923-3.916,3.923c0,3.061-2.057,3.391-2.942,3.391 c-0.243,0-0.397-0.025-0.397-0.025l22.149,22.122l10.684-10.684L47.902,37.245L47.902,37.245z"/></g><g><path fill="#d9e7f5" d="M59.423 61.174H73.532V71.782H59.423z" transform="rotate(134.999 66.478 66.478)"/><path fill="#788b9c" d="M67.715,58.446l6.794,6.794l-9.269,9.269l-6.794-6.794L67.715,58.446 M67.715,57.032L57.032,67.715 l8.208,8.208L75.923,65.24L67.715,57.032L67.715,57.032z"/></g></svg>