<svg xmlns="http://www.w3.org/2000/svg" xmlns:xlink="http://www.w3.org/1999/xlink" viewBox="0 0 48 48"><path fill="#3F51B5" d="M5,6v24h12h7h19V6H5z M13,10h-2V8h2V10z M9,10H7V8h2V10z M17,10h-2V8h2V10z M21,10h-2V8h2V10z M25,10h-2V8h2V10z M29,10h-2V8h2V10z M33,10h-2V8h2V10z M37,10h-2V8h2V10z M41,10h-2V8h2V10z M13,28h-2v-2h2V28z M9,28H7v-2h2V28z M17,28h-2v-2h2V28z M21,28h-2v-2h2V28z M25,28h-2v-2h2V28z M29,28h-2v-2h2V28z M33,28h-2v-2h2V28z M37,28h-2v-2h2V28z M41,28h-2v-2h2V28z"/><path fill="#E57373" d="M33.9,41.7l2.8-2.8c0.4-0.4,0.4-1.1,0-1.6L35.3,36L31,40.4l1.3,1.3C32.7,42.1,33.4,42.1,33.9,41.7"/><path fill="#FF9800" d="M16.1 26.7H33.5V32.9H16.1z" transform="rotate(45.001 24.818 29.815)"/><path fill="#B0BEC5" d="M30.5 34H33.6V40.2H30.5z" transform="rotate(-134.999 32.07 37.069)"/><path fill="#FFC107" d="M20.8 21.5L15 20 16.5 25.8z"/><path fill="#212121" d="M18 20.7L15 20 15.7 23z"/></svg>