<?xml version="1.0" encoding="utf-8"?>
<!DOCTYPE svg PUBLIC "-//W3C//DTD SVG 1.1//EN" "http://www.w3.org/Graphics/SVG/1.1/DTD/svg11.dtd">
<svg version="1.1" id="Layer_1" xmlns="http://www.w3.org/2000/svg" xmlns:xlink="http://www.w3.org/1999/xlink"
     viewBox="0 0 16 16">
 <g>
  <path d="M11.81,52.77c0-.11-.05-.21-.09-.31s-.09-.5-.13-.78a6,6,0,0,0,2.69-5,6.33,6.33,0,0,0-6.5-6.16,6.33,6.33,0,0,0-6.5,6.16,6.17,6.17,0,0,0,4.13,5.73c.09.54.17,1.06.26,1.48a2.55,2.55,0,0,0,.1.36,16.31,16.31,0,0,1-4,14.11,2.84,2.84,0,0,0,.34,4.15,3.23,3.23,0,0,0,4.38-.33A22,22,0,0,0,11.81,52.77ZM95.35,74.08a96.74,96.74,0,0,0-.7-37.15,43,43,0,0,0-20.73-28A5.85,5.85,0,0,0,74,8.05a6.5,6.5,0,0,0-13,0,6.33,6.33,0,0,0,6.5,6.16,6.76,6.76,0,0,0,2.69-.56A37.19,37.19,0,0,1,88.57,38.1a91.33,91.33,0,0,1,.62,35.24,6.17,6.17,0,0,0-4.12,5.73,6.5,6.5,0,0,0,13,0A6,6,0,0,0,95.35,74.08Zm-23.54-10a6.1,6.1,0,0,0-3.21-5.31,72.47,72.47,0,0,0-1.5-16.23,2.92,2.92,0,0,0,0-.31A16.9,16.9,0,0,0,52.93,29.32V24.08a6.41,6.41,0,0,0,2.28-2,25.76,25.76,0,0,1,8.86,3.51A23.57,23.57,0,0,1,74.76,40.74a79.34,79.34,0,0,1,1.43,10.09,6.09,6.09,0,0,0-3.11,5.25,6.5,6.5,0,0,0,13,0,6.13,6.13,0,0,0-3.65-5.52,85.7,85.7,0,0,0-1.57-11A29.46,29.46,0,0,0,67.52,20.71a32.16,32.16,0,0,0-11.75-4.51,6.64,6.64,0,0,0-12,.15,32.16,32.16,0,0,0-11.26,4.51l-2.93-3.94a5.75,5.75,0,0,0,.63-3.41A40.38,40.38,0,0,1,42.42,9.06a40.92,40.92,0,0,1,11.26-.53,2.95,2.95,0,1,0,.61-5.86,46.47,46.47,0,0,0-27.64,6,6.75,6.75,0,0,0-2.86-.64,6.33,6.33,0,0,0-6.5,6.16,5.84,5.84,0,0,0,.19,1.47A42.36,42.36,0,0,0,6.78,33.31,2.92,2.92,0,0,0,8.89,37a3.25,3.25,0,0,0,.87.12,3.09,3.09,0,0,0,3-2.12A36.54,36.54,0,0,1,21.7,20a6.8,6.8,0,0,0,2.09.33,6.9,6.9,0,0,0,.74,0l3.24,4.35a30.35,30.35,0,0,0-3.65,4.27,28.15,28.15,0,0,0-4.66,22.19,2.77,2.77,0,0,0,.14.55c.18.91.3,1.82.39,2.73a5.94,5.94,0,0,0-.62,9.49A29.87,29.87,0,0,1,10.44,79a2.84,2.84,0,0,0-.06,4.16,3.23,3.23,0,0,0,4.39.06A35.68,35.68,0,0,0,25.41,65.35,6.43,6.43,0,0,0,29.67,62l4.22.19A42.88,42.88,0,0,1,21.53,87.4a2.84,2.84,0,0,0,.12,4.16A3.23,3.23,0,0,0,26,91.45a48.47,48.47,0,0,0,14.3-31.92,3,3,0,0,0-3-3.08l-8.13-.37a6.45,6.45,0,0,0-3.1-2.41,34.9,34.9,0,0,0-.54-3.54,2.37,2.37,0,0,0-.11-.39,22.6,22.6,0,0,1,3.79-17.54,25,25,0,0,1,15.25-10,6.42,6.42,0,0,0,2.17,1.83v5.38a17.29,17.29,0,0,0-9.38,5.13A16,16,0,0,0,33.65,41a6.17,6.17,0,0,0-4,5.7,6.5,6.5,0,0,0,13,0,6,6,0,0,0-2.67-5A10.29,10.29,0,0,1,42,38.5,11.14,11.14,0,0,1,49.54,35,10.87,10.87,0,0,1,60.91,43.1c0,.09,0,.18,0,.28a66.9,66.9,0,0,1,1.44,15.19,6.26,6.26,0,0,0-3.3,3.74L54,65a59.67,59.67,0,0,0-.8-20.15,3.11,3.11,0,0,0-3.66-2.3A3,3,0,0,0,47.14,46a54.62,54.62,0,0,1-12,46.86A2.84,2.84,0,0,0,35.6,97,3.22,3.22,0,0,0,40,96.55a61.57,61.57,0,0,0,12.58-24l8-4.29a6.41,6.41,0,0,0,.79.68A67.82,67.82,0,0,1,51.12,94.49a2.86,2.86,0,0,0,1,4.06,3.24,3.24,0,0,0,1.65.45,3.16,3.16,0,0,0,2.64-1.38A73.57,73.57,0,0,0,67.53,69.84,6.18,6.18,0,0,0,71.82,64.05Zm6.67.41A6.33,6.33,0,0,0,72,70.62a6,6,0,0,0,2.38,4.76,81,81,0,0,1-5.16,15.1,2.89,2.89,0,0,0,1.62,3.87,3.26,3.26,0,0,0,1.23.24,3.11,3.11,0,0,0,2.85-1.78,86.88,86.88,0,0,0,5.57-16.35A6.2,6.2,0,0,0,85,70.62,6.33,6.33,0,0,0,78.49,64.46Z" transform=" scale(0.16) translate(-1 -0.9)"/>
 </g>
</svg>